<svg width="300" height="168" viewBox="0 0 300 168" fill="none" xmlns="http://www.w3.org/2000/svg"><g clip-path="url(#clip0_928_2541)"><rect width="300" height="168" rx="20" fill="#fff"/><rect x="-18" y="-5" width="58" height="178" rx="2" fill="#414345"/><rect x="47" y="76" width="242" height="83" rx="2" fill="#414345"/><rect width="76" height="45" rx="2" transform="matrix(1 0 0 -1 213 71)" fill="#414345"/><rect width="78" height="45" rx="2" transform="matrix(1 0 0 -1 129 71)" fill="#414345"/><rect width="76" height="45" rx="2" transform="matrix(1 0 0 -1 47 71)" fill="#414345"/><path d="M89.697 132h-5.262l.033-3.885h5.23c1.305 0 2.407-.293 3.303-.88.896-.597 1.572-1.466 2.025-2.606.465-1.14.698-2.518.698-4.134v-1.179c0-1.239-.133-2.329-.399-3.27-.254-.941-.636-1.732-1.145-2.374a4.79 4.79 0 00-1.876-1.444c-.742-.332-1.594-.499-2.557-.499h-5.412v-3.901h5.412c1.616 0 3.094.277 4.433.83a10.009 10.009 0 013.503 2.341c.985 1.018 1.743 2.236 2.274 3.652.542 1.406.814 2.972.814 4.699v1.145c0 1.716-.272 3.282-.814 4.698-.531 1.417-1.29 2.634-2.274 3.653-.974 1.007-2.142 1.787-3.503 2.341-1.35.542-2.845.813-4.483.813zm-2.44-24.172V132h-4.98v-24.172h4.98zm27.889 20.121v-8.002c0-.575-.094-1.068-.282-1.477a2.104 2.104 0 00-.88-.98c-.387-.232-.891-.348-1.511-.348-.531 0-.99.094-1.378.282a1.993 1.993 0 00-.896.78c-.21.332-.316.725-.316 1.179h-4.781c0-.764.177-1.489.531-2.175.355-.686.869-1.289 1.544-1.81.676-.531 1.478-.946 2.408-1.245.94-.299 1.992-.448 3.154-.448 1.394 0 2.634.233 3.719.697 1.084.465 1.937 1.162 2.556 2.092.631.93.947 2.092.947 3.486v7.687c0 .985.06 1.793.182 2.424.122.62.299 1.162.531 1.627V132h-4.831c-.232-.487-.409-1.096-.531-1.826a15.012 15.012 0 01-.166-2.225zm.631-6.889l.033 2.706h-2.673c-.631 0-1.178.072-1.643.215-.465.144-.847.349-1.146.615-.299.254-.52.553-.664.896a3.1 3.1 0 00-.199 1.129c0 .41.094.78.282 1.112.188.321.46.576.814.764.354.177.769.266 1.245.266.719 0 1.345-.144 1.876-.432.531-.288.941-.642 1.228-1.062.299-.421.454-.819.465-1.196l1.262 2.026a8.22 8.22 0 01-.731 1.411c-.298.487-.68.946-1.145 1.378a5.932 5.932 0 01-1.677 1.046c-.653.265-1.428.398-2.324.398-1.14 0-2.175-.227-3.105-.681-.918-.464-1.649-1.101-2.191-1.909-.531-.819-.797-1.749-.797-2.789 0-.941.177-1.776.531-2.507a4.903 4.903 0 011.561-1.842c.697-.51 1.566-.891 2.606-1.146 1.041-.266 2.247-.398 3.62-.398h2.772zm14.01-3.105V132h-4.781v-17.963h4.499l.282 3.918zm5.412-4.034l-.083 4.433a11.017 11.017 0 00-.846-.083 8.387 8.387 0 00-.88-.05c-.675 0-1.262.088-1.76.265a3.137 3.137 0 00-1.228.747 3.262 3.262 0 00-.731 1.212 5.954 5.954 0 00-.265 1.627l-.963-.299c0-1.162.116-2.23.348-3.204.233-.985.57-1.842 1.013-2.573.454-.73 1.007-1.295 1.66-1.693.653-.399 1.4-.598 2.241-.598.266 0 .537.022.814.066.277.034.503.083.68.15zm8.4-7.438V132h-4.782v-25.517h4.782zm11.322 7.554l-7.803 8.899-4.184 4.233-1.743-3.453 3.321-4.217 4.665-5.462h5.744zM149.957 132l-5.313-8.301 3.304-2.888L155.469 132h-5.512zm20.782-24.172h4.217l6.209 17.747 6.209-17.747h4.217L182.859 132h-3.387l-8.733-24.172zm-2.274 0h4.2l.764 17.299V132h-4.964v-24.172zm21.2 0h4.217V132h-4.98v-6.873l.763-17.299zm8.881 15.373v-.348c0-1.318.188-2.529.564-3.636.377-1.118.924-2.086 1.644-2.905a7.369 7.369 0 012.656-1.91c1.051-.464 2.258-.697 3.619-.697 1.361 0 2.573.233 3.636.697a7.348 7.348 0 012.673 1.91c.73.819 1.284 1.787 1.66 2.905.376 1.107.564 2.318.564 3.636v.348c0 1.306-.188 2.518-.564 3.636a8.471 8.471 0 01-1.66 2.905 7.358 7.358 0 01-2.657 1.909c-1.051.454-2.257.681-3.619.681-1.361 0-2.573-.227-3.635-.681a7.506 7.506 0 01-2.673-1.909 8.618 8.618 0 01-1.644-2.905c-.376-1.118-.564-2.33-.564-3.636zm4.781-.348v.348c0 .753.066 1.456.199 2.109s.343 1.228.631 1.726c.299.487.686.869 1.162 1.146.476.276 1.057.415 1.743.415.664 0 1.234-.139 1.71-.415a3.164 3.164 0 001.146-1.146 5.692 5.692 0 00.631-1.726 9.786 9.786 0 00.215-2.109v-.348c0-.731-.071-1.417-.215-2.059a5.437 5.437 0 00-.648-1.727 3.217 3.217 0 00-1.145-1.195c-.476-.288-1.052-.432-1.727-.432s-1.251.144-1.726.432a3.4 3.4 0 00-1.146 1.195 5.698 5.698 0 00-.631 1.727 10.139 10.139 0 00-.199 2.059zm27.142 5.229V106.5h4.815V132h-4.333l-.482-3.918zm-11.355-4.848v-.348c0-1.373.155-2.618.465-3.736.309-1.129.763-2.097 1.361-2.905a6.21 6.21 0 012.208-1.876c.874-.443 1.87-.664 2.988-.664 1.052 0 1.97.221 2.756.664.797.443 1.472 1.074 2.025 1.893.565.808 1.019 1.765 1.362 2.872.343 1.095.592 2.296.747 3.602v.764a19.186 19.186 0 01-.747 3.486c-.343 1.074-.797 2.015-1.362 2.823a6.004 6.004 0 01-2.025 1.859c-.797.443-1.726.664-2.789.664-1.118 0-2.114-.227-2.988-.681a6.333 6.333 0 01-2.192-1.909c-.586-.819-1.035-1.782-1.344-2.888-.31-1.107-.465-2.314-.465-3.62zm4.781-.348v.348c0 .742.055 1.434.166 2.076a6 6 0 00.581 1.71c.277.487.631.868 1.063 1.145.442.266.979.398 1.61.398.819 0 1.494-.182 2.025-.547.532-.377.936-.891 1.212-1.544.288-.653.454-1.406.498-2.258v-2.175a7.822 7.822 0 00-.299-1.876 4.064 4.064 0 00-.697-1.444 3.067 3.067 0 00-1.129-.93c-.442-.221-.968-.332-1.577-.332-.62 0-1.151.144-1.594.432a3.165 3.165 0 00-1.079 1.145c-.265.487-.465 1.063-.597 1.727a11.58 11.58 0 00-.183 2.125zm24.752 9.446c-1.395 0-2.646-.221-3.752-.664-1.107-.454-2.048-1.079-2.823-1.876a8.34 8.34 0 01-1.759-2.772 9.33 9.33 0 01-.615-3.387v-.664c0-1.362.194-2.607.581-3.736.388-1.129.941-2.108 1.661-2.938a7.274 7.274 0 012.656-1.909c1.04-.454 2.213-.681 3.519-.681 1.273 0 2.402.21 3.387.631a6.64 6.64 0 012.474 1.793c.675.775 1.184 1.704 1.527 2.789.343 1.074.515 2.269.515 3.586v1.992H241.74v-3.187h9.579v-.366c0-.664-.121-1.256-.365-1.776a2.818 2.818 0 00-1.062-1.262c-.476-.31-1.085-.465-1.826-.465-.631 0-1.174.139-1.627.415a3.217 3.217 0 00-1.113 1.163c-.276.498-.487 1.084-.631 1.759a11.262 11.262 0 00-.199 2.192v.664c0 .719.1 1.383.299 1.992.21.609.504 1.134.88 1.577.387.443.852.786 1.394 1.029.554.244 1.179.366 1.876.366.864 0 1.666-.166 2.408-.498a5.214 5.214 0 001.942-1.544l2.324 2.523c-.376.542-.891 1.063-1.544 1.561-.642.498-1.416.907-2.324 1.228-.907.31-1.942.465-3.104.465z" fill="#fff"/><rect x="47" y="9" width="242" height="11" rx="2" fill="#414345"/></g><defs><clipPath id="clip0_928_2541"><rect width="300" height="168" rx="20" fill="#fff"/></clipPath></defs></svg>