<svg width="300" height="168" viewBox="0 0 300 168" fill="none" xmlns="http://www.w3.org/2000/svg"><g clip-path="url(#clip0_1309_2079)"><rect width="300" height="168" rx="20" fill="#fff"/><rect x="-18" y="-5" width="58" height="178" rx="2" fill="#555CB8"/><rect x="47" y="76" width="242" height="83" rx="2" fill="#555CB8"/><path d="M81.993 105.828V130H77.03v-24.172h4.964zm7.438 0v3.901H69.708v-3.901h19.723zm8.565-1.328V130h-4.781v-25.5h4.78zm-.68 15.888h-1.312c.01-1.251.177-2.402.498-3.453.32-1.063.78-1.982 1.377-2.756a6.352 6.352 0 012.142-1.826c.841-.432 1.771-.648 2.789-.648.886 0 1.688.127 2.407.382a4.47 4.47 0 011.876 1.195c.532.543.941 1.256 1.229 2.142.288.885.432 1.959.432 3.221V130h-4.815v-11.389c0-.797-.116-1.422-.349-1.876-.221-.464-.547-.791-.979-.979-.421-.199-.941-.299-1.561-.299-.686 0-1.272.127-1.76.382a3.021 3.021 0 00-1.145 1.062 4.714 4.714 0 00-.63 1.561 8.867 8.867 0 00-.2 1.926zm24.701 9.944c-1.395 0-2.645-.221-3.752-.664-1.107-.454-2.048-1.079-2.822-1.876a8.327 8.327 0 01-1.76-2.772 9.329 9.329 0 01-.614-3.387v-.664c0-1.362.193-2.607.581-3.736.387-1.129.94-2.108 1.66-2.938a7.283 7.283 0 012.656-1.909c1.04-.454 2.214-.681 3.52-.681 1.272 0 2.401.21 3.386.631a6.64 6.64 0 012.474 1.793c.675.775 1.184 1.704 1.527 2.789.343 1.074.515 2.269.515 3.586v1.992h-14.277v-3.187h9.579v-.366c0-.664-.122-1.256-.366-1.776a2.818 2.818 0 00-1.062-1.262c-.476-.31-1.085-.465-1.826-.465-.631 0-1.173.139-1.627.415a3.206 3.206 0 00-1.112 1.163c-.277.498-.487 1.084-.631 1.759-.133.664-.2 1.395-.2 2.192v.664c0 .719.1 1.383.299 1.992a4.87 4.87 0 00.88 1.577c.388.443.852.786 1.395 1.029.553.244 1.178.366 1.876.366.863 0 1.665-.166 2.407-.498a5.206 5.206 0 001.942-1.544l2.325 2.523c-.377.542-.891 1.063-1.544 1.561-.642.498-1.417.907-2.325 1.228-.907.31-1.942.465-3.104.465zm16.235-14.576V130h-4.798v-17.963h4.499l.299 3.719zm-.664 4.632h-1.328c0-1.251.149-2.402.448-3.453.31-1.063.758-1.982 1.345-2.756a6.156 6.156 0 012.208-1.826c.874-.432 1.887-.648 3.038-.648a6.33 6.33 0 012.191.365 4.219 4.219 0 011.71 1.113c.487.498.863 1.151 1.129 1.959.266.796.398 1.754.398 2.872V130h-4.781v-11.455c0-.819-.11-1.45-.332-1.893-.221-.442-.537-.752-.946-.929-.399-.177-.88-.266-1.444-.266-.62 0-1.163.127-1.627.382-.454.254-.83.609-1.129 1.062a4.75 4.75 0 00-.664 1.561 8.204 8.204 0 00-.216 1.926zm10.691-.548l-1.71.216c0-1.174.144-2.264.432-3.271.299-1.007.736-1.892 1.311-2.656a6.042 6.042 0 012.175-1.776c.864-.432 1.86-.648 2.989-.648.863 0 1.649.127 2.357.382a4.325 4.325 0 011.81 1.179c.509.531.896 1.228 1.162 2.091.276.864.415 1.921.415 3.171V130h-4.798v-11.472c0-.83-.111-1.461-.332-1.892-.211-.443-.52-.747-.93-.913-.398-.177-.874-.266-1.428-.266-.575 0-1.079.116-1.51.349a2.997 2.997 0 00-1.079.929 4.267 4.267 0 00-.648 1.395 6.394 6.394 0 00-.216 1.71zm24.27 10.492c-1.394 0-2.645-.221-3.752-.664-1.106-.454-2.047-1.079-2.822-1.876a8.343 8.343 0 01-1.76-2.772 9.35 9.35 0 01-.614-3.387v-.664c0-1.362.194-2.607.581-3.736.388-1.129.941-2.108 1.66-2.938a7.286 7.286 0 012.657-1.909c1.04-.454 2.213-.681 3.519-.681 1.273 0 2.402.21 3.387.631a6.636 6.636 0 012.473 1.793c.676.775 1.185 1.704 1.528 2.789.343 1.074.514 2.269.514 3.586v1.992h-14.277v-3.187h9.579v-.366c0-.664-.122-1.256-.365-1.776a2.82 2.82 0 00-1.063-1.262c-.475-.31-1.084-.465-1.826-.465-.631 0-1.173.139-1.627.415a3.223 3.223 0 00-1.112 1.163c-.277.498-.487 1.084-.631 1.759a11.185 11.185 0 00-.199 2.192v.664c0 .719.1 1.383.299 1.992.21.609.503 1.134.88 1.577.387.443.852.786 1.394 1.029.554.244 1.179.366 1.876.366a5.82 5.82 0 002.407-.498 5.217 5.217 0 001.943-1.544l2.324 2.523c-.376.542-.891 1.063-1.544 1.561-.642.498-1.417.907-2.324 1.228-.908.31-1.943.465-3.105.465zM201.55 130h-5.263l.033-3.885h5.23c1.306 0 2.407-.293 3.303-.88.897-.597 1.572-1.466 2.026-2.606.465-1.14.697-2.518.697-4.134v-1.179c0-1.239-.133-2.329-.398-3.27-.255-.941-.637-1.732-1.146-2.374a4.786 4.786 0 00-1.876-1.444c-.741-.332-1.594-.499-2.557-.499h-5.412v-3.901h5.412c1.616 0 3.094.277 4.433.83a10.01 10.01 0 013.503 2.341c.985 1.018 1.743 2.236 2.274 3.652.543 1.406.814 2.972.814 4.699v1.145c0 1.716-.271 3.282-.814 4.698-.531 1.417-1.289 2.634-2.274 3.653-.974 1.007-2.142 1.787-3.503 2.341-1.35.542-2.844.813-4.482.813zm-2.441-24.172V130h-4.98v-24.172h4.98zm27.89 20.121v-8.002c0-.575-.095-1.068-.283-1.477a2.1 2.1 0 00-.88-.98c-.387-.232-.891-.348-1.51-.348-.532 0-.991.094-1.378.282a1.996 1.996 0 00-.897.78c-.21.332-.315.725-.315 1.179h-4.781c0-.764.177-1.489.531-2.175.354-.686.869-1.289 1.544-1.81.675-.531 1.477-.946 2.407-1.245.941-.299 1.992-.448 3.154-.448 1.395 0 2.634.233 3.719.697 1.085.465 1.937 1.162 2.557 2.092.631.93.946 2.092.946 3.486v7.687c0 .985.061 1.793.183 2.424a6.33 6.33 0 00.531 1.627V130h-4.831c-.233-.487-.41-1.096-.531-1.826a15.012 15.012 0 01-.166-2.225zm.63-6.889l.034 2.706h-2.673c-.631 0-1.179.072-1.644.215-.465.144-.847.349-1.145.615a2.358 2.358 0 00-.664.896 3.1 3.1 0 00-.2 1.129c0 .41.094.78.283 1.112.188.321.459.576.813.764.354.177.769.266 1.245.266.72 0 1.345-.144 1.876-.432.531-.288.941-.642 1.229-1.062.299-.421.453-.819.465-1.196l1.261 2.026c-.177.453-.42.924-.73 1.411a6.603 6.603 0 01-1.146 1.378 5.927 5.927 0 01-1.676 1.046c-.653.265-1.428.398-2.325.398-1.14 0-2.175-.227-3.104-.681-.919-.464-1.649-1.101-2.192-1.909-.531-.819-.796-1.749-.796-2.789 0-.941.177-1.776.531-2.507a4.89 4.89 0 011.56-1.842c.698-.51 1.566-.891 2.607-1.146 1.04-.266 2.247-.398 3.619-.398h2.772zm14.011-3.105V130h-4.781v-17.963h4.499l.282 3.918zm5.412-4.034l-.083 4.433a11.1 11.1 0 00-.847-.083 8.387 8.387 0 00-.88-.05c-.675 0-1.261.088-1.759.265a3.14 3.14 0 00-1.229.747 3.26 3.26 0 00-.73 1.212 5.953 5.953 0 00-.266 1.627l-.963-.299c0-1.162.116-2.23.349-3.204.232-.985.57-1.842 1.012-2.573.454-.73 1.008-1.295 1.661-1.693.653-.399 1.4-.598 2.241-.598.265 0 .537.022.813.066.277.034.504.083.681.15zm8.399-7.438V130h-4.781v-25.517h4.781zm11.322 7.554l-7.803 8.899-4.183 4.233-1.743-3.453 3.32-4.217 4.665-5.462h5.744zM261.809 130l-5.312-8.301 3.304-2.888 7.52 11.189h-5.512z" fill="#fff"/><rect width="76" height="45" rx="2" transform="matrix(1 0 0 -1 213 71)" fill="#555CB8"/><rect width="78" height="45" rx="2" transform="matrix(1 0 0 -1 129 71)" fill="#555CB8"/><rect width="76" height="45" rx="2" transform="matrix(1 0 0 -1 47 71)" fill="#555CB8"/><rect x="47" y="9" width="242" height="11" rx="2" fill="#555CB8"/></g><defs><clipPath id="clip0_1309_2079"><rect width="300" height="168" rx="20" fill="#fff"/></clipPath></defs></svg>