<svg width="300" height="168" viewBox="0 0 300 168" fill="none" xmlns="http://www.w3.org/2000/svg"><rect width="300" height="168" rx="20" fill="#fff"/><path d="M75.52 81.24c.213.427.32.88.32 1.36 0 .8-.32 1.467-.96 2-.587.533-1.307.8-2.16.8-1.333 0-2.267-.64-2.8-1.92l-5.68-12.96H34.08l-5.76 12.96c-.533 1.28-1.467 1.92-2.8 1.92-.853 0-1.6-.267-2.24-.8-.64-.587-.96-1.28-.96-2.08 0-.427.107-.853.32-1.28l22.88-50.88c.32-.747.8-1.307 1.44-1.68a4.057 4.057 0 012.08-.56c.8 0 1.52.213 2.16.64.64.373 1.12.907 1.44 1.6l22.88 50.88zM36.48 65.08h25.36L49.12 36.36 36.48 65.08zm63.565-20c9.76 0 14.64 5.12 14.64 15.36V82.2c0 .96-.293 1.733-.88 2.32-.533.587-1.28.88-2.24.88-.96 0-1.733-.293-2.32-.88-.587-.587-.88-1.36-.88-2.32v-3.84c-1.013 2.293-2.56 4.08-4.64 5.36-2.08 1.227-4.48 1.84-7.2 1.84-2.507 0-4.827-.507-6.96-1.52-2.08-1.013-3.733-2.427-4.96-4.24a10.479 10.479 0 01-1.84-6c0-2.933.747-5.2 2.24-6.8 1.493-1.653 3.947-2.827 7.36-3.52 3.413-.747 8.16-1.12 14.24-1.12h1.76v-2.64c0-3.2-.667-5.547-2-7.04-1.28-1.493-3.387-2.24-6.32-2.24-3.627 0-7.307.987-11.04 2.96-1.44.907-2.453 1.36-3.04 1.36-.64 0-1.173-.24-1.6-.72-.427-.48-.64-1.093-.64-1.84 0-.747.213-1.387.64-1.92.48-.587 1.227-1.173 2.24-1.76 1.867-1.067 3.973-1.893 6.32-2.48 2.4-.64 4.773-.96 7.12-.96zm-2.64 35.36c3.2 0 5.813-1.067 7.84-3.2 2.08-2.187 3.12-4.987 3.12-8.4v-2.32h-1.44c-4.693 0-8.267.213-10.72.64-2.453.373-4.213 1.04-5.28 2-1.013.907-1.52 2.267-1.52 4.08 0 2.08.747 3.813 2.24 5.2 1.547 1.333 3.467 2 5.76 2z" fill="#4D4D4D"/><path d="M25.292 137.294c-1.092 0-1.638-.574-1.638-1.722V108.86c0-1.176.504-1.764 1.512-1.764.42 0 .742.084.966.252.224.14.476.406.756.798l17.304 23.058v-22.428c0-1.12.546-1.68 1.638-1.68 1.036 0 1.554.56 1.554 1.68v26.838c0 1.12-.462 1.68-1.386 1.68-.42 0-.756-.084-1.008-.252-.252-.168-.518-.434-.798-.798l-17.304-23.142v22.47c0 1.148-.532 1.722-1.596 1.722zm37.474.084c-4.9 0-7.35-2.702-7.35-8.106v-11.256c0-1.148.56-1.722 1.68-1.722 1.148 0 1.722.574 1.722 1.722v11.214c0 1.82.364 3.164 1.092 4.032.756.868 1.932 1.302 3.528 1.302 1.736 0 3.15-.574 4.242-1.722 1.092-1.176 1.638-2.73 1.638-4.662v-10.164c0-1.148.574-1.722 1.722-1.722 1.12 0 1.68.574 1.68 1.722v17.514c0 1.176-.546 1.764-1.638 1.764-1.12 0-1.68-.588-1.68-1.764v-1.974c-.644 1.232-1.554 2.184-2.73 2.856-1.148.644-2.45.966-3.906.966zm19.259-.084c-1.12 0-1.68-.588-1.68-1.764v-17.514c0-1.148.546-1.722 1.638-1.722 1.12 0 1.68.574 1.68 1.722v2.058c.672-1.288 1.624-2.254 2.856-2.898 1.232-.644 2.618-.966 4.158-.966 4.844 0 7.266 2.688 7.266 8.064v11.256c0 1.176-.56 1.764-1.68 1.764-1.148 0-1.722-.588-1.722-1.764v-11.046c0-1.904-.378-3.29-1.134-4.158-.728-.896-1.904-1.344-3.528-1.344-1.876 0-3.374.588-4.494 1.764-1.092 1.148-1.638 2.688-1.638 4.62v10.164c0 1.176-.574 1.764-1.722 1.764zm25.131-25.62c-1.484 0-2.226-.7-2.226-2.1 0-1.372.742-2.058 2.226-2.058s2.226.686 2.226 2.058c0 1.4-.742 2.1-2.226 2.1zm0 25.536c-1.12 0-1.68-.616-1.68-1.848v-17.178c0-1.204.56-1.806 1.68-1.806 1.148 0 1.722.602 1.722 1.806v17.178c0 1.232-.574 1.848-1.722 1.848zm17.532.168c-2.408 0-4.214-.63-5.418-1.89-1.204-1.288-1.806-3.136-1.806-5.544v-10.71h-2.814c-.98 0-1.47-.448-1.47-1.344 0-.868.49-1.302 1.47-1.302h2.814v-4.83c0-1.148.574-1.722 1.722-1.722 1.12 0 1.68.574 1.68 1.722v4.83h5.292c.98 0 1.47.434 1.47 1.302 0 .896-.49 1.344-1.47 1.344h-5.292v10.374c0 1.596.336 2.814 1.008 3.654.672.812 1.764 1.218 3.276 1.218.532 0 .98-.056 1.344-.168.364-.112.686-.168.966-.168a.686.686 0 01.63.252c.168.196.252.532.252 1.008 0 .336-.07.644-.21.924-.112.28-.322.476-.63.588-.336.112-.784.21-1.344.294a7.175 7.175 0 01-1.47.168zm16.032 0c-1.988 0-3.71-.434-5.166-1.302-1.456-.868-2.59-2.086-3.402-3.654-.784-1.596-1.176-3.472-1.176-5.628s.392-4.018 1.176-5.586c.812-1.596 1.946-2.828 3.402-3.696 1.456-.868 3.178-1.302 5.166-1.302 1.96 0 3.668.434 5.124 1.302 1.484.868 2.618 2.1 3.402 3.696.812 1.568 1.218 3.43 1.218 5.586s-.406 4.032-1.218 5.628c-.784 1.568-1.918 2.786-3.402 3.654-1.456.868-3.164 1.302-5.124 1.302zm0-2.73c1.904 0 3.43-.672 4.578-2.016 1.148-1.372 1.722-3.318 1.722-5.838 0-2.548-.574-4.494-1.722-5.838-1.148-1.344-2.674-2.016-4.578-2.016-1.932 0-3.472.672-4.62 2.016-1.12 1.344-1.68 3.29-1.68 5.838 0 2.52.56 4.466 1.68 5.838 1.148 1.344 2.688 2.016 4.62 2.016z" fill="#7D7D7D"/></svg>