<svg width="300" height="168" viewBox="0 0 300 168" fill="none" xmlns="http://www.w3.org/2000/svg"><rect width="300" height="168" rx="20" fill="#fff"/><path d="M44.72 22.2h4.72L73.04 79h-5.92l-7.36-17.76H34.24L26.96 79h-6l23.76-56.8zm13.76 34.64L47.04 28.76l-11.6 28.08h23.04zM89.918 79.8c-1.974 0-3.814-.32-5.52-.96a15.09 15.09 0 01-4.4-2.8 12.89 12.89 0 01-2.88-4.08c-.694-1.6-1.04-3.307-1.04-5.12 0-1.813.426-3.493 1.28-5.04.853-1.547 2.053-2.88 3.6-4 1.546-1.12 3.386-1.973 5.52-2.56 2.133-.64 4.48-.96 7.04-.96 2.133 0 4.293.187 6.48.56 2.186.373 4.133.907 5.84 1.6v-3.76c0-3.68-1.04-6.587-3.12-8.72-2.08-2.187-4.96-3.28-8.64-3.28-2.134 0-4.32.427-6.56 1.28-2.24.853-4.507 2.08-6.8 3.68l-1.92-3.6c5.386-3.627 10.613-5.44 15.68-5.44 5.226 0 9.333 1.467 12.32 4.4 2.986 2.933 4.48 6.987 4.48 12.16v18.8c0 1.493.666 2.24 2 2.24V79c-.907.16-1.6.24-2.08.24-1.387 0-2.48-.347-3.28-1.04-.747-.693-1.147-1.653-1.2-2.88l-.16-3.28c-1.92 2.507-4.347 4.427-7.28 5.76-2.88 1.333-6 2-9.36 2zm1.28-4.16c2.826 0 5.413-.533 7.76-1.6 2.4-1.067 4.213-2.48 5.44-4.24.48-.48.826-.987 1.04-1.52.266-.587.4-1.12.4-1.6v-6.8a33.122 33.122 0 00-5.68-1.6 30.958 30.958 0 00-5.92-.56c-3.84 0-6.96.8-9.36 2.4-2.4 1.6-3.6 3.707-3.6 6.32 0 1.28.24 2.48.72 3.6a10.586 10.586 0 002.08 2.96c.906.8 1.973 1.44 3.2 1.92 1.226.48 2.533.72 3.92.72z" fill="#4D4D4D"/><path d="M23.738 134v-29.82h12.6c1.288 0 2.464.28 3.528.84a8.844 8.844 0 012.814 2.142 9.25 9.25 0 011.806 2.982 9.09 9.09 0 01.672 3.402 9.895 9.895 0 01-.504 3.15 9.308 9.308 0 01-1.344 2.688 8.288 8.288 0 01-2.058 2.016 7.56 7.56 0 01-2.73 1.092L45.83 134h-3.318l-7.014-11.004h-8.82V134h-2.94zm2.94-13.608h9.744c.868 0 1.652-.182 2.352-.546a5.83 5.83 0 001.848-1.554 7.458 7.458 0 001.176-2.184c.28-.812.42-1.666.42-2.562 0-.896-.168-1.75-.504-2.562a6.567 6.567 0 00-1.302-2.184 5.906 5.906 0 00-1.932-1.47 5.098 5.098 0 00-2.31-.546h-9.492v13.608zm30.386 14.028a8.187 8.187 0 01-2.898-.504 7.922 7.922 0 01-2.31-1.47 6.768 6.768 0 01-1.512-2.142 6.687 6.687 0 01-.546-2.688c0-.952.224-1.834.672-2.646.448-.812 1.078-1.512 1.89-2.1.812-.588 1.778-1.036 2.898-1.344 1.12-.336 2.352-.504 3.696-.504 1.12 0 2.254.098 3.402.294 1.148.196 2.17.476 3.066.84v-1.974c0-1.932-.546-3.458-1.638-4.578-1.092-1.148-2.604-1.722-4.536-1.722-1.12 0-2.268.224-3.444.672-1.176.448-2.366 1.092-3.57 1.932l-1.008-1.89c2.828-1.904 5.572-2.856 8.232-2.856 2.744 0 4.9.77 6.468 2.31 1.568 1.54 2.352 3.668 2.352 6.384v9.87c0 .784.35 1.176 1.05 1.176V134c-.476.084-.84.126-1.092.126-.728 0-1.302-.182-1.722-.546-.392-.364-.602-.868-.63-1.512l-.084-1.722a9.889 9.889 0 01-3.822 3.024c-1.512.7-3.15 1.05-4.914 1.05zm.672-2.184c1.484 0 2.842-.28 4.074-.84 1.26-.56 2.212-1.302 2.856-2.226.252-.252.434-.518.546-.798.14-.308.21-.588.21-.84v-3.57a17.375 17.375 0 00-2.982-.84 16.247 16.247 0 00-3.108-.294c-2.016 0-3.654.42-4.914 1.26-1.26.84-1.89 1.946-1.89 3.318 0 .672.126 1.302.378 1.89.28.588.644 1.106 1.092 1.554.476.42 1.036.756 1.68 1.008.644.252 1.33.378 2.058.378zm18.1-28.896h2.855v25.704c0 .812.224 1.456.672 1.932.448.448 1.078.672 1.89.672.308 0 .672-.042 1.092-.126.42-.084.812-.196 1.176-.336l.504 2.31c-.532.224-1.19.406-1.974.546-.756.14-1.414.21-1.974.21-1.316 0-2.352-.364-3.108-1.092-.756-.756-1.134-1.806-1.134-3.15v-26.67zm22.026 31.08c-1.596 0-3.066-.294-4.41-.882a11.271 11.271 0 01-3.444-2.478 12.086 12.086 0 01-2.31-3.654c-.532-1.372-.798-2.842-.798-4.41 0-1.54.266-2.982.798-4.326.56-1.372 1.316-2.562 2.268-3.57a10.579 10.579 0 013.486-2.436c1.344-.616 2.8-.924 4.368-.924 1.596 0 3.052.308 4.368.924 1.344.588 2.492 1.4 3.444 2.436a11.533 11.533 0 013.024 7.854v.672c0 .224-.014.378-.042.462H89.882a9.704 9.704 0 00.798 3.276 9.39 9.39 0 001.806 2.562 8.39 8.39 0 002.478 1.722 7.864 7.864 0 005.124.294 8.49 8.49 0 001.932-.798 7.53 7.53 0 001.596-1.218c.476-.504.84-1.05 1.092-1.638l2.478.672a7.548 7.548 0 01-1.428 2.226 10.897 10.897 0 01-2.142 1.722 10.41 10.41 0 01-2.688 1.092c-.98.28-2.002.42-3.066.42zm8.064-12.516c-.084-1.176-.364-2.24-.84-3.192a8.16 8.16 0 00-1.764-2.52 7.503 7.503 0 00-2.478-1.638 7.552 7.552 0 00-2.982-.588 7.864 7.864 0 00-3.024.588 7.989 7.989 0 00-2.52 1.638c-.7.7-1.274 1.54-1.722 2.52a9.874 9.874 0 00-.756 3.192h16.086zm35.375-9.786h2.814L134.707 134h-2.352l-4.704-11.172L122.989 134h-2.352l-9.408-21.882h2.772l7.98 18.942 4.158-9.996-3.738-8.904h2.394l2.856 7.14 2.856-7.14h2.436l-3.738 8.904 4.158 9.996 7.938-18.942zm12.842 22.302a8.187 8.187 0 01-2.898-.504 7.922 7.922 0 01-2.31-1.47 6.768 6.768 0 01-1.512-2.142 6.687 6.687 0 01-.546-2.688c0-.952.224-1.834.672-2.646.448-.812 1.078-1.512 1.89-2.1.812-.588 1.778-1.036 2.898-1.344 1.12-.336 2.352-.504 3.696-.504 1.12 0 2.254.098 3.402.294 1.148.196 2.17.476 3.066.84v-1.974c0-1.932-.546-3.458-1.638-4.578-1.092-1.148-2.604-1.722-4.536-1.722-1.12 0-2.268.224-3.444.672-1.176.448-2.366 1.092-3.57 1.932l-1.008-1.89c2.828-1.904 5.572-2.856 8.232-2.856 2.744 0 4.9.77 6.468 2.31 1.568 1.54 2.352 3.668 2.352 6.384v9.87c0 .784.35 1.176 1.05 1.176V134c-.476.084-.84.126-1.092.126-.728 0-1.302-.182-1.722-.546-.392-.364-.602-.868-.63-1.512l-.084-1.722a9.889 9.889 0 01-3.822 3.024c-1.512.7-3.15 1.05-4.914 1.05zm.672-2.184c1.484 0 2.842-.28 4.074-.84 1.26-.56 2.212-1.302 2.856-2.226.252-.252.434-.518.546-.798.14-.308.21-.588.21-.84v-3.57a17.375 17.375 0 00-2.982-.84 16.247 16.247 0 00-3.108-.294c-2.016 0-3.654.42-4.914 1.26-1.26.84-1.89 1.946-1.89 3.318 0 .672.126 1.302.378 1.89.28.588.644 1.106 1.092 1.554.476.42 1.036.756 1.68 1.008.644.252 1.33.378 2.058.378zm18.7 8.484c.224.028.434.042.63.042.224.028.434.042.63.042.504 0 .896-.07 1.176-.21.308-.14.602-.448.882-.924.28-.476.588-1.162.924-2.058.364-.896.868-2.1 1.512-3.612l-9.534-21.882h2.94l8.106 19.236 7.518-19.236h2.73l-11.34 28.224c-.308.812-.826 1.512-1.554 2.1-.7.616-1.666.924-2.898.924-.28 0-.546-.014-.798-.042-.252 0-.56-.028-.924-.084v-2.52z" fill="#7D7D7D"/></svg>