<svg width="300" height="168" viewBox="0 0 300 168" fill="none" xmlns="http://www.w3.org/2000/svg"><rect width="300" height="168" rx="20" fill="#fff"/><path d="M63.75 90l-7.11-18.164H33.75L26.719 90H20l22.578-57.344h5.586L70.625 90H63.75zm-9.18-24.14l-6.64-17.696c-.86-2.24-1.745-4.987-2.657-8.242-.573 2.5-1.393 5.247-2.46 8.242l-6.72 17.695H54.57zM103.828 90l-1.289-6.094h-.312c-2.136 2.682-4.271 4.505-6.407 5.469-2.11.938-4.752 1.406-7.93 1.406-4.244 0-7.578-1.094-10-3.281-2.395-2.188-3.593-5.3-3.593-9.336 0-8.646 6.914-13.177 20.742-13.594l7.266-.234V61.68c0-3.36-.729-5.834-2.188-7.422-1.432-1.615-3.737-2.422-6.914-2.422-3.568 0-7.604 1.094-12.11 3.281l-1.991-4.96c2.109-1.147 4.414-2.045 6.914-2.696a30.26 30.26 0 017.578-.977c5.104 0 8.88 1.133 11.328 3.399 2.474 2.265 3.711 5.898 3.711 10.898V90h-4.805zM89.18 85.43c4.036 0 7.2-1.107 9.492-3.32 2.318-2.214 3.476-5.313 3.476-9.297v-3.868l-6.484.274c-5.156.182-8.88.99-11.172 2.422-2.265 1.406-3.398 3.606-3.398 6.601 0 2.344.703 4.128 2.11 5.352 1.431 1.224 3.424 1.836 5.976 1.836z" fill="#4D4D4D"/><path d="M50.147 124.968c0 4.799-1.217 8.572-3.65 11.32-2.42 2.748-5.79 4.122-10.111 4.122-4.416 0-7.827-1.347-10.234-4.04-2.392-2.707-3.588-6.521-3.588-11.443 0-4.881 1.203-8.661 3.609-11.341 2.406-2.693 5.824-4.04 10.254-4.04 4.306 0 7.67 1.367 10.09 4.101 2.42 2.735 3.63 6.508 3.63 11.321zm-23.892 0c0 4.06.861 7.143 2.584 9.249 1.736 2.092 4.252 3.137 7.547 3.137 3.322 0 5.83-1.045 7.526-3.137 1.695-2.092 2.543-5.175 2.543-9.249 0-4.033-.848-7.089-2.543-9.167-1.681-2.092-4.177-3.138-7.485-3.138-3.322 0-5.852 1.053-7.588 3.158-1.723 2.092-2.584 5.141-2.584 9.147zm41.804 15.442c-1.463 0-2.803-.266-4.02-.8-1.203-.547-2.215-1.381-3.035-2.502h-.246c.164 1.313.246 2.557.246 3.733v9.249H57.6v-32.567h2.768l.472 3.077h.164c.875-1.231 1.894-2.12 3.056-2.666 1.162-.547 2.495-.821 3.999-.821 2.98 0 5.277 1.019 6.89 3.056 1.627 2.037 2.44 4.894 2.44 8.572 0 3.692-.826 6.563-2.48 8.613-1.641 2.038-3.924 3.056-6.85 3.056zm-.492-20.405c-2.297 0-3.958.636-4.984 1.907-1.025 1.272-1.551 3.295-1.579 6.07v.759c0 3.158.527 5.421 1.58 6.788 1.052 1.354 2.74 2.031 5.065 2.031 1.941 0 3.459-.787 4.552-2.359 1.108-1.572 1.662-3.739 1.662-6.501 0-2.803-.554-4.949-1.662-6.439-1.093-1.504-2.638-2.256-4.634-2.256zm26.546 20.405c-3.323 0-5.948-1.012-7.875-3.035-1.914-2.023-2.871-4.833-2.871-8.429 0-3.623.888-6.501 2.666-8.633 1.79-2.133 4.19-3.2 7.198-3.2 2.816 0 5.045.93 6.686 2.789 1.64 1.846 2.46 4.286 2.46 7.322v2.153H86.894c.068 2.639.731 4.642 1.99 6.009 1.27 1.367 3.055 2.051 5.352 2.051 2.42 0 4.812-.506 7.178-1.518v3.035c-1.204.52-2.345.889-3.425 1.108-1.067.232-2.359.348-3.876.348zm-.923-20.446c-1.805 0-3.247.588-4.327 1.764-1.067 1.175-1.695 2.802-1.887 4.88h11.751c0-2.146-.478-3.787-1.436-4.921-.956-1.149-2.324-1.723-4.101-1.723zM124.842 140v-14.54c0-1.832-.416-3.199-1.25-4.102-.834-.902-2.14-1.353-3.917-1.353-2.352 0-4.075.636-5.168 1.907-1.094 1.272-1.641 3.37-1.641 6.296V140h-3.404v-22.477h2.768l.554 3.077h.164c.697-1.108 1.675-1.962 2.933-2.564 1.257-.615 2.659-.923 4.204-.923 2.707 0 4.744.657 6.111 1.969 1.367 1.299 2.051 3.384 2.051 6.255V140h-3.405zm41.28-7.978c0 2.639-.957 4.697-2.871 6.173-1.914 1.477-4.512 2.215-7.793 2.215-3.554 0-6.289-.458-8.203-1.374v-3.363c1.231.519 2.57.93 4.02 1.23 1.449.301 2.884.451 4.306.451 2.324 0 4.074-.437 5.25-1.312 1.176-.889 1.764-2.119 1.764-3.691 0-1.039-.212-1.887-.636-2.543-.41-.67-1.107-1.286-2.092-1.846-.97-.561-2.454-1.196-4.45-1.907-2.789-.998-4.785-2.181-5.988-3.548-1.19-1.367-1.784-3.152-1.784-5.353 0-2.31.868-4.149 2.604-5.516 1.737-1.367 4.033-2.051 6.891-2.051 2.98 0 5.722.547 8.223 1.641l-1.086 3.035c-2.475-1.039-4.881-1.559-7.219-1.559-1.846 0-3.288.397-4.327 1.19-1.039.793-1.559 1.893-1.559 3.301 0 1.039.191 1.894.574 2.564.383.656 1.026 1.264 1.928 1.825.916.547 2.311 1.155 4.184 1.825 3.144 1.121 5.304 2.324 6.48 3.61 1.19 1.285 1.784 2.953 1.784 5.003zM186.824 140l-.677-3.199h-.164c-1.121 1.408-2.242 2.365-3.363 2.871-1.108.492-2.496.738-4.164.738-2.228 0-3.978-.574-5.25-1.722-1.257-1.149-1.886-2.783-1.886-4.902 0-4.539 3.63-6.918 10.889-7.137l3.815-.123v-1.394c0-1.764-.383-3.063-1.149-3.897-.752-.847-1.961-1.271-3.629-1.271-1.874 0-3.993.574-6.358 1.723l-1.046-2.605a16.049 16.049 0 013.63-1.415 15.874 15.874 0 013.979-.513c2.679 0 4.662.595 5.947 1.784 1.299 1.19 1.948 3.097 1.948 5.722V140h-2.522zm-7.691-2.399c2.119 0 3.781-.581 4.984-1.744 1.216-1.162 1.825-2.789 1.825-4.88v-2.031l-3.404.144c-2.707.096-4.663.519-5.866 1.271-1.189.739-1.784 1.894-1.784 3.466 0 1.231.369 2.167 1.108 2.81.751.642 1.797.964 3.137.964zM213.021 140v-14.54c0-1.832-.417-3.199-1.251-4.102-.834-.902-2.139-1.353-3.917-1.353-2.351 0-4.074.636-5.168 1.907-1.094 1.272-1.64 3.37-1.64 6.296V140h-3.405v-22.477h2.769l.554 3.077h.164c.697-1.108 1.674-1.962 2.932-2.564 1.258-.615 2.659-.923 4.204-.923 2.707 0 4.745.657 6.112 1.969 1.367 1.299 2.05 3.384 2.05 6.255V140h-3.404zm26.177-6.132c0 2.092-.779 3.705-2.338 4.84-1.558 1.135-3.746 1.702-6.562 1.702-2.981 0-5.305-.472-6.973-1.415v-3.158c1.08.547 2.235.977 3.466 1.292 1.244.314 2.44.472 3.589.472 1.777 0 3.144-.281 4.101-.841.957-.574 1.436-1.443 1.436-2.605 0-.875-.383-1.62-1.149-2.235-.751-.629-2.228-1.367-4.429-2.215-2.092-.779-3.582-1.456-4.471-2.03-.875-.588-1.531-1.251-1.969-1.989-.423-.739-.635-1.621-.635-2.646 0-1.832.745-3.274 2.235-4.327 1.49-1.067 3.534-1.6 6.132-1.6 2.42 0 4.785.492 7.095 1.477l-1.209 2.768c-2.256-.929-4.3-1.394-6.132-1.394-1.614 0-2.83.253-3.651.759-.82.506-1.23 1.203-1.23 2.091 0 .602.15 1.115.451 1.539.314.423.813.827 1.497 1.21.684.382 1.996.936 3.938 1.661 2.666.97 4.463 1.948 5.393 2.932.943.985 1.415 2.222 1.415 3.712z" fill="#7D7D7D"/></svg>