<svg width="500" height="318" viewBox="0 0 500 318" fill="none" xmlns="http://www.w3.org/2000/svg"><path d="M221.956 175.842c6.059 3.955 8.496 9.072 7.309 15.349-5.675 8.507-8.513 15.874-8.513 22.1 0 6.226-.427 14.326-1.281 24.297l-47.169.997-.1-.06c-1.261.024-2.5.044-3.718.06-10.498.136-19.812 1.527-20.252 1.595-3.437.533-9.632-5.844-11.351-8.005-2.762-3.472-4.075-7.58-4.659-12.052-.55-4.218.226-8.139 1.751-11.899 1.782-4.392 4.571-8.194 8.107-11.542 3.877-3.554 8.053-6.456 12.734-8.596.181-.083 3.541-1.737 3.702-1.715.108.015 5.479 1.735 12.948 5.225a1730.784 1730.784 0 0127.51-19.129c9.261-1.705 16.922-.58 22.982 3.375z" fill="#fff"/><path fill-rule="evenodd" clip-rule="evenodd" d="M160.92 278.498c7.417 1.528 11.888-1.383 13.414-8.731 2.288-11.022-11.539-9.052-15.771-14.724-4.231-5.673 5.155-6.81 15.771-3.405 10.625-.466 13.692.143 14.302-2.788.61-2.93-4.925-4.776-19.711-4.293-14.786.483-12.611.503-11.486 12.857.749 8.236 1.91 15.264 3.481 21.084z" fill="#fff"/><path d="M345.248 302.038c-5.7-4.715-9.715-7.682-11.867-9.578-5.139-4.53-10.403-8.916-15.588-13.394-1.065-.921-2.101-1.911-2.978-3.008-1.101-1.377-.85-2.326.888-2.997 1.372-.528 2.87-.771 4.334-1.005 4.365-.698 8.737-1.35 13.113-1.977 1.923-.276 3.861-.437 5.789-.677.344-.043.673-.215 1.009-.327-.167-.271-.295-.579-.507-.808-1.688-1.823-3.392-3.632-5.092-5.444-.15-.16-.309-.31-.463-.465.242-.059.48-.137.725-.173 4.48-.661 8.96-1.326 13.442-1.971 2.943-.423 5.886-.862 8.838-1.209 3.022-.355 6.052-.643 9.084-.893 2.712-.224 5.434-.318 8.145-.544 1.737-.145 3.458-.487 5.195-.628 2.172-.175 4.355-.203 6.529-.352 2.716-.186 5.427-.459 8.143-.64 2.284-.153 4.575-.194 6.858-.349 1.842-.124 3.674-.396 5.517-.507 1.8-.109 3.607-.097 5.411-.139 4.671-.109 9.342-.243 14.013-.32 2.858-.047 5.741-.225 8.568.08 1.474.159 3.158.92 4.209 1.957 2.654 2.621 5.007 5.549 7.475 8.359 1.512 1.724 3.028 3.445 4.517 5.189 3.138 3.676 6.252 7.372 9.392 11.045.976 1.141 2.02 2.223 2.999 3.361.281.326.445.753.663 1.133-.309-.252-1.229-1.04-.923-.761 30.295 27.56-97.285 33.42-117.438 17.042zM.157 200.199c.103-2.838.191-5.676.301-8.514.036-.916.14-1.83.196-2.747.47-7.607 1.374-15.167 3.321-22.543 1.554-5.885 3.605-11.61 6.099-17.202 2.844-6.379 6.302-12.377 10.286-18.08a90.497 90.497 0 016.607-8.354c2.838-3.187 5.754-6.342 8.935-9.18 3.632-3.24 7.534-6.193 11.453-9.091.873-.645 2.415-.96 3.457-.691 1.828.474 2.093 2.063.694 3.277-3.176 2.756-4.687 6.275-4.92 10.361-.128 2.257.083 4.533-.042 6.791-.413 7.442 1.76 14.292 4.978 20.826 3.077 6.248 7.557 11.393 13.985 14.398 3.688 1.725 7.633 2.935 11.517 4.211 3.374 1.108 6.832 1.964 10.242 2.966 3.345.984 6.64 1.876 10.185.694 1.818-.606 3.182 1.02 2.486 2.782-2.633 6.664-4.877 13.581-9.502 19.2a61.904 61.904 0 01-9.418 9.197c-5.042 3.973-10.838 6.805-16.628 9.596-5.648 2.721-11.168 5.706-16.84 8.373-6.39 3.005-12.866 5.833-19.346 8.643-5.228 2.268-10.506 4.423-15.789 6.562a18.85 18.85 0 01-3.963 1.093c-1.349.223-4.312-1.892-4.841-3.29-1.344-3.548-2.257-7.196-2.634-10.977-.23-2.301-.539-4.594-.894-6.891-.082-.163-.082-.326 0-.571.137-3.147.194-6.212.232-9.278.001-.084-.205-.171-.314-.257v-1.222c.055-.082.157-.08.157-.082z" fill="#fff"/><path fill-rule="evenodd" clip-rule="evenodd" d="M218.905 237.488l99.268-2.529h4.072c5.936 4.421 12.449 6.327 19.538 5.716 10.634-.916 20.024-12.653 22.217-29.016.323-1.276 1.107-1.583 2.351-.92 1.37 2.671 3.801 3.836 7.293 3.496 1.517-.164 2.36.191 3.216 1.836.856 1.646 5.381 3.716 8.218 2.055 2.836-1.661 15.913-22.843 15.913-26.407s.734-11.348 1.311-11.851c.577-.502 1.663-.094 3.77-.762 2.108-.668 3.911-.004 10.669-17.742 6.757-17.737 17.096-44.254 18.197-62.822 1.101-18.567-12.014-12.005-18.197-4.257-6.184 7.749-23.42 27.699-39.373 38.533-1.952 1.458-3.545 2.143-4.78 2.056-.74-4.611-3.772-6.329-9.096-5.154-2.069.371-3.763-1.264-5.08-4.907-3.413-18.914-11.194-32.6-23.343-41.058-18.223-12.687-49.274-19.938-56.745 6.59-4.981 17.684-1.987 39.17 8.983 64.456l-4.567 3.953c-17.971 6.217-32.652 13.891-44.043 23.023-17.086 13.698-17.413 27.06-18.32 38.081a5553.676 5553.676 0 01-1.472 17.63z" fill="#fff"/><path d="M182.174 161.112c.152-1.437.221-2.883.387-4.318.009-.077.738-.242.948-.098a163.716 163.716 0 015.78 4.144c.513.387.554.771.786-.24.364-1.581 2.614-2.023 3.961-.899 3.089 2.576 4.648 6.041 5.779 9.808.981 3.268.592 6.589.687 9.891.062 2.119 2.046 3.717 4.129 3.802 1.54.063 3.16.739 4.546 1.503 3.352 1.85 5.508 4.767 6.567 8.442 1.141 3.958.08 7.482-2.214 10.77-2.087 2.991-3.987 6.124-7.015 8.317-1.675 1.213-3.605 2.22-4.916 3.752-1.408 1.646-3.025 2.718-4.942 3.458-4.724 1.823-9.885-.541-12.198-4.479-2.443-5.197-11.164-.962-14.542-8.628-1.706-2.53-2.37-4.651-2.002-4.863.449-.259-.172-.914-.966-1.748-3.47-3.645-6.553-7.593-8.661-12.215-.333-.729-.677-1.482-.822-2.26-.089-.477.044-1.16.354-1.49.195-.207.97-.058 1.363.156.587.321 1.054.859 1.596 1.272.926.703 1.44.404 1.189-.693-.712-3.118-.058-6.078 1.039-8.938.591-1.543 1.554-2.95 2.447-4.356.085-.134.944.069 1.317.31.694.448 1.294 1.041 1.933 1.573.043-.852.057-1.707.14-2.555.05-.504.174-1.008.327-1.493.765-2.428 1.176-2.551 3.203-1.028.271.204.597.337.897.503.041-.309.096-.617.122-.928.224-2.668-.311-5.089-2.262-7.071-.023-.023.401-.72.644-.739 2.81-.221 5.621-.337 8.191 1.164.526.307 1.05.616 1.657 1.006.244-.222.517-.514.551-.832z" fill="#fff"/><path fill-rule="evenodd" clip-rule="evenodd" d="M223.844 62.951c-8.299 6.878-12.062 16.835-11.29 29.872 1.158 19.555 23.907 33.487 34.911 27.59 11.004-5.896 23.155-14.487 24.606-32.772.616 17.399 2.44 25.868-21.02 38.487-23.459 12.618-47.985-6.962-51.532-15.032-3.547-8.07-12.087-25.886 5.245-46.555 2.372-2.733 8.732-3.263 19.08-1.59z" fill="#fff"/><path fill-rule="evenodd" clip-rule="evenodd" d="M421.571 291.753c2.007-.22 3.856-.396 5.692-.669 4.169-.619 8.33-1.299 12.498-1.926 2.481-.373 4.999-.554 7.444-1.082 1.716-.37 3.27-.13 4.851.39.253.084.448.349.67.529-.266.15-.521.397-.802.433-3.665.463-7.339.848-10.999 1.348-3.68.503-7.341 1.14-11.018 1.666-2.562.366-5.139.626-7.705.969-1.337.178-2.66.466-3.998.644-1.893.253-3.798.421-5.691.676-2.221.299-4.432.67-6.652.977-1.785.247-3.579.427-5.364.671-2.274.31-4.543.664-6.816.982-1.677.235-3.357.448-5.036.662-1.769.226-3.546.402-5.307.676-1.066.166-2.047.158-2.364-1.069-.289-1.119.283-1.996 1.372-2.237 1.492-.33 3.024-.511 4.548-.655 1.809-.171 3.628-.244 5.444-.342 2.235-.12 4.474-.182 6.706-.343 2.375-.172 4.742-.444 7.115-.646 2.791-.236 5.587-.409 8.375-.678 1.449-.139 2.883-.432 4.326-.643a72.455 72.455 0 012.711-.333zm-43.547-15.459c2.008-.108 3.856-.185 5.697-.334 1.955-.159 3.902-.422 5.858-.574 2.196-.17 4.399-.239 6.596-.402 2.491-.186 4.977-.447 7.467-.638 1.842-.142 3.691-.193 5.533-.34 2.309-.185 4.612-.452 6.921-.637 1.842-.147 3.691-.194 5.533-.341 2.433-.194 4.859-.556 7.294-.638 2.779-.093 5.57-.958 8.347 0 .331.115.631.316.946.476-.299.057-.596.134-.898.166-2.107.224-4.217.415-6.321.662-2.556.3-5.102.693-7.661.954-1.872.191-3.764.178-5.638.357-2.569.244-5.126.613-7.694.872-1.864.187-3.738.266-5.606.421-2.435.202-4.87.423-7.303.65-2.218.207-4.435.414-6.649.654-2.828.307-5.647.683-8.477.963-2.685.265-5.381.413-8.067.673-1.868.181-3.722.524-5.591.67-.73.057-1.543-.1-2.212-.398-.479-.212-.781-.82-1.161-1.251.483-.329.943-.899 1.453-.948 3.099-.296 6.211-.463 9.316-.699.722-.055 1.436-.209 2.317-.318z" fill="#E7EAEE"/><path fill-rule="evenodd" clip-rule="evenodd" d="M207.238 317.394c-.168.135-.256.238-.34.235-.767-.022-1.534-.063-2.3-.098.732-.505 1.401-1.283 2.208-1.467a23.891 23.891 0 008.683-3.9c3.462-2.47 5.599-5.71 6.376-9.85.12-.637-.059-.923-.829-.919-1.098.006-2.199-.174-3.296-.298-2.147-.243-3.856-1.761-4.045-3.571-.121-1.16 1.622-3.591 2.909-4.219 2.994-1.459 6.322 1.422 7.173 3.916.342 1.005.505.641.957.227 2.137-1.953 2.837-4.461 2.667-7.216-.181-2.944-1.478-5.311-4.032-6.968-.886-.574-1.225-1.391-.539-2.434.748-1.138 2.825-1.215 3.636-.209 1.096 1.36 2.058 2.928 2.664 4.557 1.467 3.953 1.091 7.796-1.378 11.332-.176.253-.322.545-.549.743-1.938 1.683-2.983 3.777-3.771 6.244-2.337 7.317-7.7 11.637-14.971 13.8-.35.104-.759.014-1.223.095zm9.89-22.131c-1.403.831-1.786 3.216-.458 3.631 1.534.48 3.307.215 4.977.231.072.001.192-.419.214-.65.219-2.244-1.885-3.792-4.733-3.212z" fill="#FFB61D"/><path fill-rule="evenodd" clip-rule="evenodd" d="M403.105 283.448c4.633-.44 9.098-.913 13.571-1.307 3.169-.28 6.35-.422 9.521-.683 1.957-.16 3.907-.418 5.858-.651 2.692-.32 5.386-.917 8.073-.886 1.532.017 3.315.515 4.36 2.068.081.12.172.233.258.35-.203.04-.419.149-.605.11-3.505-.743-6.952-.024-10.43.297-2.424.223-4.889-.043-7.328.067-2.45.11-4.89.424-7.335.633-2.7.23-5.405.408-8.101.675-1.449.144-2.879.465-4.326.637-2.15.255-4.31.419-6.459.677-2.459.295-4.919.591-7.361.997-2.902.483-5.778 1.125-8.679 1.622-2.873.492-5.751 1.018-8.649 1.273-1.321.116-2.718-.295-4.038-.634-1.015-.261-.785-.976-.138-1.445.522-.378 1.161-.707 1.788-.805 1.886-.295 3.79-.471 5.688-.685 2.006-.226 4.011-.475 6.021-.653 2.863-.252 5.732-.417 8.594-.679 1.739-.159 3.465-.456 5.202-.639 1.446-.153 2.9-.229 4.515-.339zm-30.723-13.631c3.822-.437 7.477-.896 11.139-1.301 2.379-.262 4.77-.413 7.149-.674 1.391-.153 2.766-.44 4.152-.638.952-.136 1.912-.212 2.866-.334 2.918-.374 5.83-.801 8.754-1.125 2.973-.329 5.96-.532 8.936-.845 2.725-.286 5.436-.732 8.167-.926.98-.07 2.016.335 2.99.639.324.101.535.564.798.862-.373.123-.739.328-1.119.355-2.125.153-4.255.229-6.379.397-2.242.177-4.481.408-6.717.651-1.714.187-3.42.447-5.133.644-2.054.237-4.118.398-6.168.669-3.008.397-6.005.876-9.01 1.295-3.255.453-6.522.829-9.769 1.326-2.806.43-5.588 1.007-8.388 1.476-3.679.616-7.369 1.173-11.048 1.791-1.345.226-2.161-.54-2.282-1.608-.11-.967.742-1.319 1.83-1.392 2.858-.19 5.701-.603 8.548-.947.183-.022.347-.206.684-.315zm42.693 34.278c-3.566.446-6.968.881-10.367 1.341-1.448.196-2.888.572-4.335.59-.47.006-1.404-.96-1.331-1.312.148-.714.759-1.778 1.319-1.875 2.382-.414 4.815-.519 7.228-.753 2.177-.211 4.351-.452 6.528-.663 2.413-.234 4.827-.459 7.242-.669 2.705-.235 5.41-.464 8.117-.666 1.854-.139 3.715-.193 5.568-.349 2.179-.184 4.35-.462 6.529-.652 1.743-.151 3.497-.188 5.239-.354 1.797-.17 3.585-.436 5.377-.653.217-.026.454-.056.655.006.693.213 1.374.465 2.059.702-.604.209-1.194.526-1.814.608-3.671.482-7.35.896-11.023 1.36-2.444.309-4.878.697-7.324.989-2.244.268-4.502.423-6.746.691-1.181.142-2.34.49-3.522.621-2.516.278-5.041.463-7.56.712-.563.055-1.117.214-1.839.326z" fill="#E7EAEE"/><path fill-rule="evenodd" clip-rule="evenodd" d="M142.08 196.682c3.877-3.554 8.053-6.456 12.734-8.596.181-.083.367-.285.529-.262.703.096 1.398.255 2.096.391-.505.345-.976.765-1.521 1.024-5.416 2.566-10.46 5.681-14.564 10.142-3.988 4.337-6.847 9.203-7.478 15.278-.58 5.585.129 10.808 3.288 15.519 1.696 2.528 3.985 4.414 6.767 5.667.221.099.429.228.643.343-.249.05-.496.11-.746.149-3.437.533-5.228-2.001-6.947-4.162-2.762-3.472-4.075-7.58-4.659-12.052-.55-4.218.226-8.139 1.751-11.899 1.782-4.392 4.571-8.194 8.107-11.542z" fill="#4543A1"/><path fill-rule="evenodd" clip-rule="evenodd" d="M357.145 268.837c-.584-1.285.262-2.708 1.606-2.695 2.295.021 4.59.175 6.884.291 1.756.088 3.51.204 5.265.307.211.012.478-.053.624.045.488.33.933.717 1.395 1.083-.445.219-.878.594-1.338.628-1.422.106-2.867.208-4.281.08-2.502-.227-4.868.336-7.179 1.043-1.258.385-2.052-.016-2.976-.782zM25.647 162.969c-.327 1.987-.69 3.806-.97 5.637-.177 1.16-.216 2.34-.343 3.509-.206 1.908-.569 3.809-.624 5.719-.134 4.627-.092 9.259-.19 13.887-.096 4.463.764 8.783 1.805 13.083.202.836.263 1.82.759 2.443.76.956.054 1.419-.48 1.566-.51.14-1.505-.11-1.71-.494-.56-1.053-.939-2.243-1.169-3.422-.582-2.986-1.287-5.979-1.492-8.999-.277-4.088-.085-8.204-.18-12.306-.117-4.972.616-9.854 1.299-14.756 1.127-8.09 2.74-16.067 5.296-23.831.309-.938 1.002-1.843 1.74-2.522.9-.829 2.289-.071 2.488 1.18.235 1.481-.44 2.614-1.254 3.733-2.449 3.37-3.673 7.213-4.32 11.273a237.59 237.59 0 00-.655 4.3zm16.515 35.281c-.115 1.016 1.713 2.235-.325 2.618-.552.104-1.758-.997-2.011-1.744-.768-2.262-1.512-4.598-1.718-6.948-.286-3.246-.072-6.531-.072-9.799v-1.138c0-5.145.023-10.291-.016-15.437-.01-1.364-.33-2.73-.29-4.089.03-1 .237-2.073.698-2.958.328-.633 1.178-1.334 1.852-1.39.462-.038 1.391.938 1.466 1.533.198 1.559.118 3.164.002 4.74-.09 1.225-.52 2.428-.594 3.652-.185 3.057-.266 6.12-.364 9.181-.128 3.963-.489 7.94-.267 11.886.183 3.262 1.066 6.488 1.64 9.893zm15.601-6.603c-3.097-4.788-5.406-9.846-6.85-15.275-.292-1.095-.039-2.483.372-3.573.197-.524 1.567-1.112 2.01-.878.602.316 1.081 1.364 1.164 2.149.32 3.028.527 6.026 1.526 8.973 1.214 3.581 3.295 6.569 5.311 9.639.42.639 1.675 1.27.79 2.081-.882.807-1.779-.129-2.444-.87-.625-.698-1.202-1.441-1.88-2.246zm14.215-10.26c-1.863-1.813-3.728-3.465-5.396-5.307-.867-.958-.705-2.176.338-3.09 1.04-.912 1.69-.061 2.29.633 2.266 2.625 4.5 5.279 6.736 7.931.127.151.261.529.23.551-.367.254-.84.721-1.139.629-1.024-.313-1.99-.828-3.059-1.347z" fill="#E7EAEE"/><path fill-rule="evenodd" clip-rule="evenodd" d="M434.354 254.713c1.473.159 3.158.92 4.208 1.957 2.655 2.621 5.008 5.549 7.475 8.359 1.513 1.724 3.028 3.445 4.517 5.189 3.139 3.676 6.253 7.372 9.393 11.045.976 1.141 2.019 2.223 2.999 3.361.281.326.445.753.663 1.133-.309-.252-.642-.48-.923-.761-7.42-7.43-14.812-14.889-22.265-22.285-2.44-2.422-5.213-4.471-8.561-5.426-3.528-1.007-7.123-1.348-10.819-.742-1.862.305-3.818-.01-5.726.066-4.249.17-8.493.45-12.741.606-2.489.091-4.988-.054-7.475.061-2.662.123-5.316.424-7.972.652-2.444.21-4.888.407-7.329.646-1.934.189-3.86.454-5.793.645-2.457.243-4.925.389-7.376.68-2.078.247-4.136.655-6.206.965-2.303.345-4.612.646-6.914.993a825.737 825.737 0 00-10.624 1.666c-.131.022-.349.533-.274.641.655.944 1.329 1.88 2.069 2.759 3.694 4.386 7.437 8.73 11.109 13.134 4.165 4.992 8.196 10.098 12.432 15.028 2.972 3.46 5.902 7.03 10.097 9.162.135.069.254.166.38.249-.153.026-.322.109-.457.07-2.562-.752-5.236-1.061-7.107-3.484-3.455-4.474-7.175-8.741-10.729-13.139-4.396-5.442-8.576-11.071-13.8-15.783-.425-.384-.87-.782-1.374-1.034-1.119-.558-2.148-.745-3.021.578-1.737 2.635-3.633 5.165-5.368 7.801-1.157 1.758-.782 2.62 1.312 4.044 5.512 3.75 11.499 6.42 17.904 8.239 2.667.758 5.312 1.719 7.207 3.964.135.159.278.31.418.465-.225-.022-.466.002-.673-.072-8.626-3.05-17.262-6.072-25.859-9.203-1.413-.515-2.713-1.426-3.947-2.318-.787-.569-.75-1.423-.236-2.339 1.767-3.147 3.456-6.337 5.159-9.52.115-.216.166-.715.125-.729-.433-.148-.912-.365-1.339-.3-1.785.272-3.583.528-5.326.983-3.935 1.028-7.842 2.162-11.752 3.285-.228.065-.378.408-.564.621a349.6 349.6 0 013.048 2.399c4.143 3.606 8.208 7.125 12.264 10.654 2.173 1.89 4.331 3.796 6.497 5.694.089.078.181.152.272.228-.205.034-.427.137-.611.091-2.63-.665-5.208-1.335-7.36-3.231-5.139-4.53-10.403-8.916-15.588-13.394-1.066-.921-2.101-1.911-2.978-3.008-1.101-1.377-.85-2.326.888-2.997 1.371-.528 2.87-.771 4.334-1.005 4.365-.698 8.737-1.35 13.113-1.977 1.922-.276 3.861-.437 5.789-.677.344-.043.673-.215 1.009-.327-.167-.271-.295-.579-.507-.808-1.688-1.823-3.392-3.632-5.092-5.444-.15-.16-.309-.31-.463-.465.241-.059.48-.137.725-.173 4.48-.661 8.96-1.326 13.442-1.971 2.943-.423 5.885-.862 8.838-1.209 3.021-.355 6.052-.643 9.084-.893 2.711-.224 5.434-.318 8.145-.544 1.737-.145 3.458-.487 5.195-.628 2.171-.175 4.355-.203 6.529-.352 2.716-.186 5.427-.459 8.143-.64 2.283-.153 4.574-.194 6.858-.349 1.842-.124 3.674-.396 5.516-.507 1.8-.109 3.608-.097 5.412-.139 4.671-.11 9.341-.243 14.013-.32 2.858-.047 5.741-.225 8.568.08zm-271.7-11.026c1.246.129 2.52-.039 3.775.035 3.061.181 6.116.463 9.177.634 2.849.16 5.711.127 8.552.368 2.909.247 4.651 1.462 4.464 4.948-.168 3.144-.225 6.294-.337 9.442-.104 2.928-.218 5.857-.32 8.786-.015.433.001.868.029 1.301.024.375.086.748.131 1.122-.108 0-.297.032-.311-.004-.154-.405-.353-.811-.402-1.233-.17-1.478-.281-2.962-.423-4.443-.212-2.21-.426-4.419-.649-6.628a208.734 208.734 0 00-.372-3.347c-.082-.693-.161-1.388-.284-2.074-.052-.292-.213-.564-.325-.846-.229.131-.504.215-.68.398-2.147 2.231-3.615 4.833-4.178 7.93-.062.339-.267.651-.405.976-.114-.287-.208-.585-.346-.86-2.508-5.019-6.459-8.354-11.854-9.494-2.466-.521-5.127-.077-7.7-.093-1.295-.008-1.51.736-1.397 1.842.245 2.406.43 4.819.66 7.227.313 3.277.649 6.551.967 9.827.224 2.3.406 4.603.667 6.898.074.645.368 1.264.552 1.897.086.297.152.599.227.899-.329-.229-.864-.396-.952-.697-.444-1.519-.77-3.073-1.141-4.614-.43-1.79-.863-3.579-1.295-5.532-.432-3.047-1.026-5.917-1.257-8.817-.325-4.099-.952-8.242-.039-12.323.516-2.31 3.153-3.766 5.466-3.525zm-8.785 8.052c.674.238 1.183.957 1.763 1.466-.4.466-.734 1.026-1.216 1.378-1.055.77-2.313 1.294-3.26 2.171-2.25 2.083-1.185 6.224 1.15 7.318 1.077.504 2.152 1.018 3.192 1.595.377.208.648.612.966.927l-1.164.03c-2.492.065-4.361-1.087-5.758-3.091-2.104-3.019-.987-5.972 1.49-8.334.234-.223.445-.469.683-.686.308-.278.632-.538.949-.806-.616-.079-1.296-.367-1.838-.199-2.022.628-3.169 2.318-3.784 4.167-2.108 6.349 2.876 11.492 8.531 10.83.597-.07 1.243.281 1.865.436-.149.095-.288.224-.451.277-4.734 1.544-8.768-.206-11.055-4.779-.158-.316-.374-.602-.563-1.064-1.094-5.608 1.243-9.792 6.371-11.464.672-.219 1.51-.39 2.129-.172zm5.766-6.366c-1.004.231-1.357 1.315-.825 2.277.727 1.317 1.848 1.367 3.199 1.233 2.132-.211 4.305-.376 6.43-.194 2.694.23 5.345.966 8.04 1.22 2.244.212 4.522.044 6.948-.121.947-.054 1.894-.125 2.843-.16 1.14-.041 1.791-.954 1.177-1.93-.377-.6-1.154-1.223-1.815-1.306-2.77-.346-5.561-.549-8.35-.691-1.972-.101-3.956.06-5.928-.038-2.986-.148-5.964-.461-8.949-.615-.918-.047-1.867.118-2.77.325zm147.766-11.859c3.298.065 6.587.599 9.879.94.245.026.51.103.715.237.43.28.825.614 1.235.927-.523.051-1.045.116-1.569.152-3.283.226-6.566.464-9.851.645-.546.03-1.112-.321-1.659-.292-3.394.182-6.784.451-10.178.621-.764.039-1.548-.326-2.311-.287-3.286.169-6.567.442-9.853.62-.6.033-1.221-.322-1.821-.29-3.395.179-6.784.447-10.179.621-.709.036-1.439-.326-2.148-.289-3.286.172-6.566.445-9.852.62-.655.035-1.33-.323-1.985-.289-3.394.176-6.784.442-10.179.621-.6.032-1.221-.322-1.821-.291-3.395.179-6.785.441-10.179.623-.546.029-1.112-.321-1.658-.292-3.394.182-6.784.451-10.179.621-.764.038-1.547-.327-2.311-.287-3.286.169-6.567.442-9.852.62-.601.032-1.221-.323-1.822-.291-3.394.179-6.784.445-10.179.622-.655.034-1.329-.324-1.984-.29-3.34.176-6.676.445-10.016.621-.655.034-1.33-.324-1.985-.29-3.394.176-6.784.445-10.178.621-.655.034-1.33-.324-1.985-.289-3.286.175-6.567.443-9.852.621-.601.032-1.221-.323-1.822-.291-3.394.179-6.784.439-10.179.623-.491.027-1.004-.322-1.494-.292-2.8.172-5.594.434-8.393.609-1.906.119-3.823.067-5.723.232-2.715.236-5.436.495-8.123.941-2.102.349-4.139 1.107-6.242 1.44-.592.093-1.466-.549-1.911-1.101-.188-.234.236-1.309.658-1.656 1.73-1.424 3.813-1.665 6.131-1.479a250.23 250.23 0 004.001-.332c2.323-.216 4.642-.509 6.969-.645 3.071-.179 6.15-.34 9.224-.325 5.162.027 10.323.27 15.484.285 3.837.01 7.674-.191 11.511-.31 3.238-.1 6.476-.221 9.715-.328 3.401-.113 6.803-.22 10.204-.333 3.239-.107 6.479-.186 9.715-.339 3.848-.183 7.691-.46 11.54-.633.819-.036 1.654.321 2.475.29 4.881-.18 9.76-.427 14.641-.637.887-.038 1.781.045 2.666-.014 2.905-.197 5.804-.461 8.71-.632.654-.038 1.33.326 1.984.288 2.96-.171 5.914-.443 8.873-.621.545-.032 1.113.324 1.658.291 2.905-.177 5.805-.45 8.71-.62.654-.039 1.331.325 1.985.287 2.959-.171 5.913-.448 8.873-.619.654-.038 1.33.327 1.984.288 2.851-.17 5.696-.452 8.547-.618.708-.041 1.439.327 2.147.286 2.852-.166 5.697-.44 8.547-.62.491-.031 1.004.321 1.495.292 3.068-.182 6.137-.644 9.197-.583zm-.055-162.345c7.189.665 13.962 2.969 20.198 6.528 3.664 2.091 7.072 4.678 10.409 7.279 5.177 4.034 9.244 9.088 12.755 14.599 2.619 4.11 4.908 8.403 6.268 13.076 1.236 4.249 2.341 8.569 3.031 12.932.499 3.151.204 6.424.296 9.641.095 3.289-.25 6.532-.6 9.803-.855 7.985-2.353 15.808-4.596 23.523-.974 3.348-.271 6.813.367 10.203.559 2.97 1.589 5.745 3.17 8.326.191.311.176.747.256 1.125-.405-.027-.832.02-1.212-.091-2.742-.801-3.63-3.036-4.284-5.484-.469-1.756-.893-3.549-1.609-5.209-.819-1.898-1.137-1.718-2.935-.823-3.701 1.842-7.463 3.592-11.305 5.12-5.203 2.07-10.675 3.143-16.211 4.01-3.004.471-6.039 1.386-8.302 3.58-1.051 1.019-1.867 2.467-2.315 3.87-.561 1.758-.689 3.61.355 5.43.62 1.078 1.271 1.261 2.301.977 5-1.375 9.965-2.902 15.012-4.074 3.877-.901 7.873-1.278 11.789-2.029 4.064-.78 8.156-.971 12.272-.953.31.002.619.083.928.127-.28.065-.559.136-.841.193-3.826.783-7.656 1.551-11.479 2.35-3.464.723-6.92 1.491-10.384 2.217-3.872.812-7.757 1.56-11.62 2.411-1.885.415-3.77.894-5.587 1.535-2.536.894-3.333 2.467-3.472 5.342-.157 3.236.402 6.266 1.18 9.269 1.398 5.391 3.793 10.307 7.667 14.465 3.256 3.495 6.927 6.325 11.595 7.531 2.517.65 5.148 1.06 7.744 1.158 3.237.123 6.384-.483 9.453-1.773 3.846-1.617 6.818-4.158 9.022-7.558 2.421-3.735 4.015-7.865 4.589-12.289.477-3.672.974-7.381.945-11.069-.041-5.319-1.143-10.51-3.2-15.461-.128-.308-.627-.742.353-.771 2.595-.075 5.17 2.289 5.204 4.985.031 2.466.113 4.939-.017 7.399-.237 4.456 4.524 10.283 8.448 11.288.858.219.935-.084.726-.528-2.392-5.06-.925-10.008.496-14.897 2.743-9.44 6.504-18.512 10.269-27.584 3.682-8.871 7.217-17.803 10.792-26.718 3.033-7.562 6.017-15.143 9.047-22.706 2.918-7.282 5.867-14.552 8.806-21.826.094-.233.249-.441.341-.675.174-.443.324-.895.484-1.343-.457.308-1.022.53-1.354.94-3.927 4.843-7.583 9.929-11.785 14.52-4.491 4.907-9.367 9.487-14.306 13.956-3.529 3.193-7.435 5.972-11.181 8.926-.35.276-.755.484-1.135.724.036-.442.117-.885.102-1.325-.115-3.376 3.021-3.68 4.907-5.154 2.839-2.22 5.791-4.307 8.536-6.636 5.115-4.34 9.185-9.636 13.333-14.855 1.121-1.41 2.321-2.758 3.567-4.217 3.636-3.947 7.057-7.945 10.783-11.637 3.268-3.238 6.9-6.069 11.487-7.401 2.046-.595 5.764.769 7.14 2.925 1.436 2.25 2.007 4.718 2 7.4-.015 5.568-1.149 10.963-2.326 16.355-1.284 5.884-2.53 11.779-3.96 17.628-.839 3.431-1.826 6.849-3.062 10.157-2.94 7.867-5.924 15.724-9.174 23.467-1.849 4.406-4.136 8.647-6.462 12.832-1.289 2.32-3.194 4.088-6.259 3.949-1.255-.057-2.062 1.403-2.235 3.186-.251 2.592-.465 5.207-1 7.748-1.082 5.146-3.39 9.825-6.157 14.258-2.091 3.349-4.414 6.553-6.572 9.862-1.495 2.292-3.474 4.141-6.185 4.284-1.698.089-3.465-.987-5.188-1.577-.28-.096-.527-.357-.732-.592-.845-.966-1.494-2.394-2.548-2.803-.985-.383-2.418.582-3.605.462-2.027-.204-3.722-1.255-4.962-2.948-.242-.33-.516-1.099-.78.164-.714 3.426-1.618 6.819-2.583 10.186-1.759 6.136-5.014 11.412-9.99 15.429-3.083 2.49-6.637 4.139-10.8 4.368-4.222.231-8.007-.913-11.784-2.591-5.347-2.376-10.046-5.615-14.437-9.458-6.297-5.513-11.072-12.118-14.35-19.698-1.833-4.241-2.909-8.821-4.151-13.297-1.251-4.51-2.825-8.835-5.413-12.79-2.345-3.584-4.055-7.502-4.704-11.744-.216-1.414.266-2.987.651-4.428.768-2.868 1.191-5.763.543-8.667-.323-1.447-1.209-2.76-1.722-4.176-2.058-5.681-4.222-11.33-6.045-17.085-1.257-3.969-2.127-8.072-2.964-12.157-.535-2.615-.702-5.306-1.019-7.965-.232-1.94-.515-3.878-.641-5.825-.179-2.798-.141-5.611-.369-8.404-.293-3.602.241-7.169 1.127-10.555.868-3.31 2.561-6.45 4.183-9.511 1.88-3.548 4.455-6.593 7.937-8.749 3.109-1.925 6.429-3.356 10.118-3.627 2.97-.217 5.984-.557 8.927-.285zm-23.667 86.92c-.206.341-.331.831-.633.998-1.767.977-3.536 1.97-5.38 2.786-3.13 1.384-6.316 2.64-9.641 3.95-5.198 2.315-10.335 4.43-15.236 6.999-4.883 2.558-9.422 5.698-13.66 9.29-6.202 5.259-11.208 11.43-14.441 18.881-1.321 3.044-2.226 6.379-2.667 9.67-.584 4.353-.513 8.794-.748 13.195a952.777 952.777 0 01-.658 11.08c-.091 1.392-1.174.359-1.743.612-.045.02-.517-.54-.488-.797.273-2.456.765-4.897.893-7.357.16-3.102.014-6.219.044-9.329.057-5.96 1.193-11.681 3.673-17.135 2.309-5.079 5.422-9.577 9.119-13.741 5.578-6.283 12.257-11.092 19.538-15.143a154.582 154.582 0 0121.417-9.848c3.206-1.189 6.328-2.607 9.496-3.9.344-.14.742-.144 1.115-.211zm87.433 72.128c2.832.398 5.65.893 8.478 1.317 1.726.258 3.454.582 5.19.658 2.544.112 5.097-.014 7.645.043 1.867.042 3.732.201 5.596.331 1.321.092 2.638.3 3.959.321 3.057.049 6.115.049 9.171.009 7.161-.093 14.322-.294 21.483-.284 1.83.003 3.659.632 5.489.97.106.019.261-.047.32.01.419.399.818.819 1.224 1.232-.53.041-1.059.116-1.589.118-3.622.01-7.244.037-10.865-.01-1.43-.019-2.856-.275-4.287-.314-5.249-.142-10.499-.249-15.75-.347-1.874-.035-3.749-.005-5.788-.005-2.347 0-4.532.041-6.715-.01-3.34-.077-6.678-.272-10.018-.317-4.222-.057-8.447.066-12.666-.05-1.976-.054-3.949-.437-5.909-.768-1.095-.184-1.351-1.199-.987-2.024.251-.57 1.09-1.168 1.692-1.198 1.435-.074 2.894.116 4.327.318zm-83.805-68.371c-.116.065-.267.101-.344.198-2.384 3.012-5.035 5.857-7.071 9.088-2.734 4.343-4.992 8.992-6.343 13.99-.73 2.703-1.258 5.46-1.893 8.188-.417 1.789-1.361 3.267-2.906 4.259-2.054 1.316-4.229 2.448-6.252 3.807-5.038 3.383-8.228 8.174-10.088 13.856-1.04 3.18-1.696 6.435-1.094 9.841.366 2.07.519 4.178.747 6.271.037.333-.032.678-.052 1.017-.443-.04-1.097.087-1.286-.152-.519-.656-1.081-1.43-1.199-2.221-.354-2.36-.493-4.752-.739-7.129-.052-.496-.2-.981-.304-1.472-.441.49-.945.936-1.312 1.476-2.445 3.603-4.853 7.231-7.303 10.831-.179.263-.599.364-.907.54-.08-.551-.404-1.228-.195-1.628.776-1.484 1.624-2.955 2.633-4.289 2.361-3.122 5.037-6.026 7.182-9.283 1.414-2.148 2.179-4.735 3.138-7.163.982-2.485 2.532-4.52 4.535-6.25 2.528-2.183 5.044-4.38 7.647-6.652 1.769-1.875 3.661-3.52 5.093-5.497 1.887-2.609 2.559-5.788 3.323-8.883 1.616-6.548 4.493-12.484 8.741-17.742 1.057-1.31 2.06-2.684 3.267-3.845.655-.63 1.682-.881 2.553-1.276.103-.047.284.076.429.12zM50.812 103.798c1.828.473 2.093 2.062.694 3.276-3.176 2.756-4.687 6.275-4.92 10.361-.128 2.257.083 4.533-.042 6.791-.413 7.442 1.76 14.292 4.978 20.826 3.077 6.248 7.557 11.393 13.985 14.398 3.688 1.725 7.633 2.935 11.517 4.211 3.374 1.108 6.832 1.964 10.242 2.966 3.345.984 6.64 1.876 10.185.694 1.818-.606 3.182 1.02 2.486 2.782-2.633 6.664-4.877 13.581-9.502 19.2a61.904 61.904 0 01-9.418 9.197c-5.042 3.973-10.838 6.805-16.628 9.596-5.648 2.721-11.168 5.706-16.84 8.373-6.39 3.005-12.866 5.833-19.346 8.643-5.228 2.268-10.506 4.423-15.789 6.562a18.85 18.85 0 01-3.963 1.093c-1.349.223-4.312-1.892-4.841-3.29-1.344-3.548-2.257-7.196-2.634-10.977-.23-2.301-.539-4.594-.894-6.891-.082-.163-.082-.326 0-.571.137-3.147.194-6.212.232-9.278.001-.084-.205-.171-.314-.257v-1.222c.055-.082.157-.082.157-.082.103-2.838.191-5.676.301-8.514.036-.916.14-1.83.196-2.747.47-7.607 1.374-15.167 3.321-22.543 1.554-5.885 3.605-11.61 6.099-17.202 2.844-6.379 6.302-12.377 10.286-18.08a90.514 90.514 0 016.607-8.354c2.838-3.187 5.754-6.342 8.935-9.18 3.632-3.24 7.534-6.193 11.453-9.091.873-.645 2.415-.96 3.457-.69zm-4.766 4.471c-.184.083-.392.134-.549.253-4.927 3.735-9.825 7.507-13.905 12.194-2.535 2.911-5.126 5.782-7.519 8.805-5.816 7.35-10.317 15.449-13.744 24.387-.116.333-.251.661-.346 1-1.473 5.261-3.03 10.501-4.367 15.796-.593 2.349-.763 4.807-1.074 7.222-.342 2.657-.723 5.316-.905 7.986-.149 2.2.052 4.422-.053 6.627-.13 2.739-.508 5.468-.6 8.207-.062 1.85.237 3.71.282 5.568.055 2.244-.029 4.492.026 6.737.045 1.84.09 3.694.345 5.513.312 2.228.87 4.42 1.276 6.636.587 3.199 1.901 4.438 5.034 4.665 2.195.158 3.864-1.139 4.171-3.196.038-.25.431-.685.482-.661 2.768 1.299 5.17-.009 7.597-1.039 5.154-2.187 10.331-4.325 15.434-6.626a1289.627 1289.627 0 0022.676-10.489 160.908 160.908 0 0010.365-5.413c6.613-3.75 12.658-8.198 17.554-14.112 3.795-4.584 6.14-9.795 7.5-15.497.258-1.083-.123-2.023-1.417-2.301-3.51-.753-7.011-1.546-10.526-2.273-7.144-1.479-14.05-3.54-20.47-7.146-8.244-4.631-13.525-11.624-16.696-20.264-1.505-4.098-2.713-8.345-2.682-12.808.023-3.351-.272-6.731.086-10.044.33-3.062 1.341-6.051 2.04-9.074.048-.206-.007-.435-.015-.653zm137.463 48.427a163.716 163.716 0 015.78 4.144c.513.387.553.771.786-.24.364-1.581 2.614-2.023 3.961-.899 3.089 2.576 4.648 6.041 5.779 9.808.98 3.268.592 6.589.687 9.891.061 2.119 2.046 3.717 4.129 3.802 1.54.063 3.16.739 4.546 1.503 3.352 1.85 5.508 4.767 6.567 8.442 1.141 3.958.079 7.482-2.215 10.77-2.086 2.991-3.986 6.124-7.014 8.317-1.675 1.213-3.605 2.22-4.916 3.752-1.408 1.646-3.025 2.718-4.942 3.458-4.724 1.823-9.885-.541-12.198-4.479-2.084-3.549-7.102-2.769-9.047.107-.848 1.254-1.081 2.911-1.715 4.331-.389.871-.011.739.571.652 2.887-.429 5.777-.839 8.667-1.248.148-.021.307.037.461.058-.114.088-.22.191-.344.261-2.866 1.619-5.968 2.534-9.211 2.921-2.458.293-4.97.762-7.393.514-1.909-.196-3.851-1.144-5.538-2.159-1.989-1.198-2.586-3.231-2.547-5.607.074-4.613 1.844-8.506 4.766-11.881.842-.972 2.328-1.381 3.51-2.062.45-.259 1.104-.292.309-1.126-3.469-3.645-6.552-7.593-8.66-12.215-.333-.729-.677-1.482-.822-2.26-.09-.477.044-1.16.354-1.49.194-.207.97-.058 1.362.156.588.321 1.054.859 1.597 1.272.926.703 1.44.404 1.189-.693-.712-3.118-.058-6.078 1.039-8.938.591-1.543 1.554-2.95 2.447-4.356.085-.134.944.069 1.317.31.694.448 1.294 1.041 1.933 1.573.043-.852.057-1.707.14-2.555.05-.504.174-1.008.326-1.493.766-2.428 1.177-2.551 3.203-1.028.272.204.598.337.898.503l.088-.618c.013-.103.025-.206.034-.31.223-2.668-.311-5.089-2.262-7.071-.023-.023.401-.72.644-.739 2.81-.221 5.621-.337 8.191 1.164.526.307 1.05.616 1.656 1.006.245-.222.518-.514.552-.832.152-1.437.221-2.883.387-4.318.009-.077.738-.242.948-.098zm-18.722 46.47c-.063.119-.104.26-.193.354-3.197 3.375-4.689 7.384-4.57 12.034.064 2.525 1.41 4.384 3.935 4.845 1.605.293 3.27.28 4.91.324.198.006.522-.457.598-.751.483-1.878.448-3.972 2.462-5.412.561-.218 1.124-.433 1.684-.654.255-.1.707-.191.718-.317.023-.268-.105-.683-.311-.811-.55-.34-1.153-.716-1.774-.802-2.86-.398-4.889-1.905-6.053-4.5-.554-1.233-.855-2.581-1.27-3.877a54.767 54.767 0 01-.136-.433zm7.63 12.536c-.217.822-.466 1.639-.62 2.473-.026.139.412.541.54.502.519-.158.686-2.653.08-2.975zm11.858-57.23c.175.599.422 1.188.51 1.8.199 1.387.08 2.715-1.283 3.532-1.09.653-1.906-.132-2.647-.705-1.683-1.302-3.671-1.472-5.646-1.719-1.079-.136-1.128.308-.776 1.237.519 1.365 1.164 2.816 1.124 4.212-.026.876-1.145 1.779-1.891 2.557-.696.725-1.364.382-1.914-.334-.085-.11-.357-.075-.542-.107.013.294-.026.602.047.881.432 1.659-.187 3.261-1.926 4.215-1.204.66-2.053-.347-2.784-1.127-.551-.586-.601-.23-.835.216-2.032 3.889-2.265 7.956-1.186 12.135.268 1.039-.21 1.556-1.067 1.516-.999-.046-1.979-.439-2.976-.639-.461-.092-.943-.085-1.415-.123.128.455.187.944.396 1.359 1.724 3.43 3.941 6.533 6.818 9.054 1.697 1.488 2.739 2.792 2.688 5.359-.067 3.352 1.717 6.092 4.811 7.915 2.465 1.452 5.085 1.149 7.685 1.238 1.33.046 2.298.505 3.089 1.56l.315.421c1.623 2.178 3.229 4.347 6.135 5.109 3.276.858 6.272.515 8.798-1.794.526-.481.531-1.631.554-2.478.004-.154-1.062-.426-1.651-.492-2.353-.263-4.719.334-7.095-.309-3.356-.908-6.44-2.245-8.983-4.667-.48-.456-.884-.993-1.322-1.493.773.182 1.548.359 2.319.551.192.048.412.105.551.233 3.596 3.314 7.816 4.758 12.695 4.373 4.95-.391 7.5-2.989 7.755-7.334.264-4.487-.603-8.833-2.667-12.9-.299-.589-.296-1.405-.224-2.094.28-2.676.952-5.377-1.92-7.28-.483-.32-.617-1.39-.65-2.125-.098-2.18-.785-2.994-2.913-3.192-1.298-.12-2.025-.897-2.321-2.116-.086-.353-.082-.728-.119-1.093-.346.311-.784.565-1.021.944-1.204 1.927-3 3.119-4.888 4.272-.957.584-1.266.517-1.503-.564-.111-.51-.525-.952-.802-1.425-.266.379-.542.751-.796 1.138-.336.511-.573 1.115-.995 1.535-1.507 1.499-3.029 2.991-4.654 4.356-.353.297-1.414.303-1.683.011-.355-.384-.308-1.193-.325-1.822-.016-.626.138-1.256.142-1.884.001-.246-.193-.691-.319-.699-.269-.015-.685.116-.808.324l-.639 1.077c-.638 1.077-1.266 2.164-1.779 3.3-1.377 3.044-1.941 6.277-2.017 9.617-.01.47-.512.977-.89 1.366-.129.133-.795.034-.836-.087-.176-.527-.314-1.108-.277-1.656.059-.87.284-1.727.412-2.594.772-5.232 3.037-9.68 6.946-13.259.143-.132.643-.141.652-.112.355 1.213.686 2.433.985 3.662.067.277.005.586.003.88.262-.119.555-.196.781-.364 2.473-1.83 4.451-4.083 5.87-6.829.342-.662.82-1.253 1.236-1.876l.729 1.328c.242.443.481.888.709 1.339.088.173-.05.458.034.636.062.131.428.28.469.237 1.263-1.304 2.477-2.657 3.759-3.941.492-.492 1.418-1.303 1.652-1.16.763.467 1.323 1.287 1.9 2.019.132.168-.081.592.041.787.223.356.7.946.857.886.793-.307 1.589-.708 2.229-1.257.256-.22.112-.905-.012-1.542-.658-4.16-2.3-7.838-5.299-10.852-.188-.19-.383-.373-.575-.56l-.154.752c-.286 1.381-1.772 2.212-2.845 1.376-1.353-1.055-2.426-2.462-3.72-3.605-.577-.51-1.397-.746-2.106-1.106zm114.54 34.077c-.116.115-.312.217-.333.348-.076.468-.19.96-.116 1.415.403 2.491.91 4.965 1.283 7.46.651 4.351 1.741 8.575 3.989 12.384.797 1.35 2.091 2.412 3.176 3.589.123.133.365.158.551.234-.008-.115-.004-.233-.026-.346-.263-1.359-.366-2.776-.828-4.066-1.101-3.075-2.371-6.091-3.737-9.294-.819-2.219-1.685-4.422-2.442-6.661-.521-1.542-.888-3.135-1.331-4.703-.036-.127-.123-.241-.186-.36zm87.684-7.309c-.007.149-.317.273-.462.431-.392.431-.851.827-1.144 1.319-3.227 5.416-4.924 11.38-6.236 17.476a112.964 112.964 0 00-.987 5.192c-.109.933-.329 1.87-.299 2.798.036 1.08.025 2.289.501 3.201 1.332 2.557 4.905 2.484 7.097 1.137 2.029-1.245 3.004-3.254 4.103-5.151 1.873-3.232 3.437-6.647 5.383-9.832 2.646-4.332 5.256-8.647 6.449-13.649.359-1.505-.408-2.531-2.014-2.485-3.78.109-7.455-.636-11.134-1.326-1.237-.232-1.208-.296-1.257.889zm-182.846-.677c-.653 2.813-.234 5.499.575 8.154 1.18 3.868 2.467 7.707 2.072 11.84-.276 2.892-1.575 5.176-4.06 6.773-.382.245-.554.819-.822 1.241.503.105 1.01.3 1.508.28.307-.011.639-.309.896-.548 1.838-1.709 3.898-3.249 5.42-5.208 1.529-1.969 2.518-4.36 3.906-6.729.318-1.515.694-3.021.943-4.548.558-3.424-1.157-6.72-4.281-7.884-2.046-.762-4.287-1.045-5.156-3.53-.142-.406-.671-1.258-1.001.159zm-98.975-74.291c3.993.474 8.015 1.215 11.847 2.414 4.106 1.286 7.704 3.733 10.616 6.956 3.97 4.395 6.56 9.502 7.711 15.367.487 2.484.641 4.95.594 7.446-.03 1.585-.194 3.167-.313 4.749-.256 3.384.593 6.603 1.432 9.827.86 3.302.547 6.612.244 9.966-.447 4.955-2.311 9.437-4.333 13.846-1.302 2.838-3.065 5.472-4.708 8.144-1.389 2.261-2.904 4.445-4.444 6.744-2.078 3.271-4.106 6.441-6.056 9.658-.86 1.419-1.56 2.934-2.336 4.403-.095.179-.189.37-.329.513-.481.493-.983.967-1.477 1.448-.046-.703-.324-1.49-.103-2.095 1.767-4.843 4.491-9.166 7.444-13.361 3.576-5.08 7.375-10.023 9.911-15.757 1.666-3.768 2.98-7.643 3.444-11.758.269-2.383.57-4.775.625-7.168.055-2.376-.178-4.759-.299-7.138-.006-.118-.212-.334-.223-.328-.266.152-.572.283-.764.508-1.017 1.199-1.988 2.436-3.007 3.634-2.588 3.042-5.74 5.09-9.717 5.975-3.929.875-7.233-.268-10.024-2.829-3.537-3.245-3.484-7.214-1.05-10.97 2.226-3.437 5.452-5.26 9.602-5.843 4.058-.571 7.741.556 11.424 1.758 1.361.445 2.199.922 2.264-1.004.073-2.18-.062-4.389.25-6.534.401-2.757-.561-5.164-1.338-7.668-1.539-4.953-4.511-8.83-8.488-12.109-3.051-2.517-6.474-4.246-10.206-5.26-3.853-1.047-7.764-1.526-11.863-1.11-6.64.673-12.41 3.215-17.654 7.103-3.714 2.753-6.604 6.319-9.166 10.156-.381.572-1.012.977-1.525 1.462-.64.605-1.496.78-1.953.072-.348-.538-.474-1.685-.134-2.123l.79-1.019c1.584-2.04 3.199-4.079 5.08-5.815 2.305-2.128 4.947-3.918 7.564-5.673 4.373-2.934 9.166-4.908 14.405-5.71 2.093-.32 4.239-1.117 6.263-.877zm62.927 95.239c-.025.206-.093.418-.069.619.222 1.871 1.447 3.111 2.835 4.148.464.347 1.277.226 1.931.319-.345-.531-.668-1.079-1.043-1.587-.223-.303-.528-.544-.797-1.139-.799-.692-1.595-1.386-2.399-2.071-.136-.116-.304-.194-.458-.289zm257.62-115.98c-1.749 1.456-3.489 2.93-5.149 4.484-2.724 2.55-4.449 5.812-5.876 9.155-2.999 7.028-5.772 14.152-8.611 21.248-4.184 10.457-8.344 20.923-12.514 31.712-.218.346-.499.667-.646 1.041-2.652 6.738-5.278 13.486-7.93 20.224-2.044 5.194-4.212 10.341-6.145 15.575-1.787 4.841-2.943 9.863-3.617 14.984-.065.493.102 1.017.162 1.526.049-.433.032-.889.173-1.291.094-.27.528-.425.615-.694 1.661-5.136 3.187-10.319 4.97-15.412 1.228-3.506 2.77-6.905 4.239-10.323.687-1.596 1.299-1.751 2.841-.987 1.042.515 2.102.998 3.12 1.556 1.609.883 3.315 1.217 5.134 1.056 1.296-.115 2.917-1.611 2.949-3.004.031-1.362-.574-2.454-2.153-2.598-.987-.09-1.997-.041-2.962-.229-.713-.138-1.37-.558-2.052-.853.444-.339.857-.737 1.345-.997.302-.16.716-.111 1.08-.153 2.442-.282 4.512.885 6.658 1.721 3.863 1.505 6.041 1.218 8.004-1.359 1.055-1.385 1.762-3.064 2.459-4.682 3.166-7.341 6.526-14.613 9.329-22.091 2.901-7.736 5.604-15.584 7.728-23.559 2.286-8.579 4.79-17.171 5.232-26.137.121-2.47-.09-4.86-.797-7.298-1.137-3.925-4.842-4.898-7.586-2.615zm-134.323 78.585c-.14.269-.318.524-.413.807-1.227 3.637-1.035 7.278.663 10.645 1.779 3.525 3.957 6.851 5.98 10.252.086.144.372.17.565.252.062-.263.235-.557.169-.783-.579-1.985-1.238-3.948-1.781-5.943-.112-.411.01-1.098.297-1.354.426-.379 1.139-.745 1.653-.659 1.484.248 2.716 2.011 2.862 3.771.242 2.907.327 5.838.766 8.716.707 4.628 2.533 8.913 4.56 13.108.11.227.324.404.49.604.162-.259.4-.499.473-.781.253-.988.3-2.054.696-2.975 1.393-3.246 1.371-6.367-.335-9.51-.933-1.721-1.659-3.552-2.642-5.497-.694-1.996-1.023-4.236-2.166-5.932-1.762-2.616-4.137-4.815-6.15-7.274-1.776-2.17-3.411-4.455-5.109-6.689l-.578-.758zm-93.036 30.982c.374.639.662 1.23 1.136 1.577 1.78 1.301 1.58 4.804-.171 5.883-.393.242-1.069.038-1.615.04 0-.443-.136-.94.022-1.32 1.109-2.668-.042-4.854-2.948-5.554-.455-.11-.868-.386-1.301-.586.398-.244.787-.503 1.195-.729.436-.242.888-.456 1.335-.678 1.681-.839 1.95-.7 2.347 1.367zm2.943-13.952c.264 1.518.182 3.159-.09 4.686-.213 1.191-3.338 1.846-5.037 1.625-1.795-.233-2.899-1.304-4.015-2.446-.972-.995-2.079-1.777-3.451-1.224-1.391.562-1.444 1.944-1.379 3.416-.39 2.589-1.142 4.683-3.403 6.215-2.992 2.029-6.439.543-7.784-1.916-.152-.278-.421-.493-.636-.737-.163.239-.377.458-.48.72-.808 2.041-1.685 4.062-2.354 6.148-.417 1.301.177 1.892 1.506 1.878a69.637 69.637 0 012.665.009c.232.006.461.134.692.207-.128.217-.206.553-.393.63-.838.345-1.831 1.037-2.541.832-1.862-.54-3.494-1.56-3.601-3.868-.173-3.759 1.845-6.596 3.992-9.361 2.444-3.149 6.052-4.261 9.69-5.291 4.569-1.295 9.137-2.594 13.708-3.884.952-.268 2.65.861 2.911 2.361zm-17.475 2.924a54.062 54.062 0 00-4.799 2.161c-2.69 1.384-2.972 3.832-.733 5.773 2.329 2.019 5.318 1.334 6.197-1.55.493-1.617.599-3.351.879-5.356.076-1.214-.689-1.367-1.544-1.028zm6.753 1.202c.143.057.282.131.43.169 2.212.564 3.932 4.166 2.881 6.116-.208.385-.633.648-.958.967-.081-.318-.171-.633-.241-.954-.208-.948-.408-1.899-.687-2.926a78.11 78.11 0 01-1.356-2.953c-.055-.125-.048-.278-.069-.419zm6.874-5.486c-1.834.64-3.597 1.479-5.717 2.235-.055.246-.229.546-.145.73 1.057 2.318 5.027 3.952 7.405 3.079 1.403-.515 2.18-2.294 1.717-3.933-.32-1.136-2.202-2.48-3.26-2.111zm168.549-56.138c3.159.308 5.68 1.688 7.603 4.407 1.056 1.494.254 2.732.005 3.987-.896 4.524-1.977 9.009-3.004 13.505-.845 3.703-1.707 7.401-2.572 11.099a5366.505 5366.505 0 01-3.479 14.777c-.839 3.542-1.69 7.083-2.556 10.619-.09.37-.32.704-.486 1.055-.153-.369-.464-.751-.434-1.104.239-2.791.482-5.585.845-8.361.383-2.922.85-5.835 1.372-8.735.623-3.461 1.278-6.918 2.035-10.35 1.715-7.772 3.93-15.394 6.462-22.933 1.007-2.995-1.852-4.972-4.165-4.921-1.477.033-2.753.371-4.11.703-.224.054-.578-.442-.872-.847 0-.271-.034-.395.006-.485.314-.716-.828-2.027.855-2.184.833-.077 1.678-.311 2.495-.232zm-162.06 43.495c1.982.03 3.964.294 5.944.275 2.833-.027 5.536.576 8.066 1.691 2.225.98 4.28 2.336 6.492 3.607 2.58 2.298 4.545 4.869 5.3 8.161.099.432-.377.993-.587 1.495-.338-.302-.889-.551-.983-.914-1.798-6.97-6.862-10.362-13.474-12.064-3.612-.929-7.267-.7-10.933-.373-.475.042-1.539.67-1.579-.581-.036-1.15.936-1.309 1.754-1.297zm94.246-97.668c-6.44.914-11.204 4.61-14.813 9.916-3.934 5.783-5.251 12.356-5.423 19.11-.124 4.822.453 9.676.933 14.495.359 3.6.868 7.209 1.659 10.737.997 4.446 2.37 8.808 3.543 13.216 1.961 7.37 4.431 14.568 7.561 21.523 3.337 7.413 7.723 14.13 13.887 19.561 1.99 1.753 4.296 3.02 6.979 3.286 3.341.332 6.586-.297 9.782-1.275 6.835-2.091 13.741-3.97 20.508-6.26 6.179-2.091 10.028-6.575 11.4-12.941a228.075 228.075 0 002.617-14.421c.612-4.11 1.109-8.258 1.282-12.404.133-3.172-.282-6.37-.523-9.551-.184-2.424-.478-4.84-.723-7.587-.797-4.825-2.242-9.444-4.145-13.959-2.891-6.861-6.875-12.898-12.26-18.108-5.871-5.678-12.887-9.29-20.517-11.776-4.306-1.402-8.763-2.434-13.223-3.246-2.777-.506-5.746-.71-8.524-.316zm-191.77 44.158c-.191.299-.362.615-.578.895-4.006 5.211-8.249 10.26-11.97 15.667-4.39 6.38-8.06 13.214-10.908 20.571-1.11 2.306-2.124 4.537-3.17 6.753-.555 1.173-1.706 1.026-2.491.648-.85-.409-.745-1.275-.236-2.187 4.194-7.506 8.219-15.108 12.51-22.557 2.632-4.569 5.475-9.039 8.546-13.321 1.643-2.291 3.961-4.101 6.002-6.099.271-.265.694-.453 1.072-.51.392-.059.814.085 1.223.14zm10.752 29.96c-4.494 1.192-6.727 4.481-6.338 8.806.246 2.726 1.325 4.471 3.909 5.207 2.962.842 5.919.456 8.709-.666 4.001-1.608 7.274-4.041 8.267-8.924.104-1.315-.275-2.277-1.447-3.133-4.153-3.036-8.537-2.5-13.1-1.29zM210.34 61.96c-.11.136-.219.19-.329.326-.351.158-.786.129-1.041.328-6.352 4.962-10.336 11.446-12.43 19.15-.994 3.658-1.445 7.389-1.28 11.153.29 6.622 2.369 12.675 6.136 18.184 4.115 6.018 9.583 10.446 16.111 13.553 3.741 1.781 7.712 3.063 11.918 3.287 1.892.101 3.829-.211 5.685.066 3.567.53 6.886-.43 10.18-1.388 6.634-1.93 12.473-5.264 17.474-10.082 3.69-3.555 6.881-7.42 8.988-12.108.042-.092.093-.179.14-.269.062.122.193.252.178.363-.314 2.38-.162 4.79-1.854 6.914-5.239 6.575-11.314 12.113-19.186 15.329-3.367 1.376-6.963 2.26-10.519 3.097a26.12 26.12 0 01-6.609.66 43.218 43.218 0 01-16.075-3.532c-5.486-2.36-10.289-5.676-14.383-9.982-4.76-5.007-8.083-10.836-9.487-17.613-.559-2.7-1.004-5.49-.966-8.23.119-8.565 2.637-16.462 7.624-23.472 1.359-1.91 3.186-3.498 4.845-5.19.781-.796 4.252-1.18 4.88-.544zm6.999.082c.082.01.154.11.231.169-.142.05-.282.107-.426.15-5.59 1.707-9.571 5.377-12.231 10.458-1.63 3.114-2.514 6.497-3.011 10.027-1.012 7.174.644 13.78 4.088 19.935 4.256 7.606 10.273 13.394 18.603 16.39 2.656.956 5.402 1.982 8.173 2.232 6.655.601 13.047-.591 18.972-3.926 4.416-2.486 8.046-5.813 11.301-9.674 3.775-4.48 5.923-9.7 7.258-15.28.468-1.956.267-4.072.389-6.113.023-.383.13-.76.198-1.14.447.231 1.137.353 1.298.713.574 1.282 1.459 2.697 1.327 3.967-.272 2.612-.927 5.23-1.775 7.727-2.203 6.477-6.094 11.881-11.144 16.43-4.698 4.233-10.116 7.19-16.28 8.674-2.087.503-4.198 1.08-6.322 1.203-1.967.113-3.983-.231-5.947-.562-2.615-.44-5.287-.807-7.782-1.656-6.892-2.344-12.673-6.327-17.335-12.039-3.724-4.563-5.875-9.748-6.907-15.433-1.214-6.69-.126-13.171 2.349-19.43 1.675-4.234 4.117-7.986 7.463-11.114.254-.237.393-.596.586-1.06a.612.612 0 01.326-.327c2.144-1.224 4.381-.578 6.598-.32zm245.644 58.338c2.242.024 4.479.329 6.72.504 2.727.214 5.452.483 8.185.588 2.613.101 5.238-.042 7.852.049a15.49 15.49 0 013.826.637c.417.124.598.919.888 1.408-.398.118-.789.27-1.196.346-.472.088-.96.109-1.523.084-5.436-.177-10.79-.318-16.144-.36-2.169-.016-4.34.263-6.508.25-1.064-.006-2.129-.353-3.185-.577-1.102-.234-1.431-1.148-1.021-1.815.353-.574 1.383-1.122 2.106-1.114zM233.479 66.563c1.225 5.844 2.36 11.707 3.561 17.556.617 3.003-.116 4.249-2.698 5.707-3.412 1.926-6.712 4.072-9.973 6.26-1.633 1.097-2.973 1.478-3.868.612-.845-.818-.983-1.538.144-2.305 3.527-2.401 7.07-4.785 10.48-7.353.742-.56 1.411-1.894 1.334-2.802-.279-3.318-.871-6.61-1.382-9.905-.213-1.375-.519-2.735-.783-4.267-.126-1.35-.488-2.58-.292-3.708.123-.707 1.013-1.672 1.684-1.793 1.191-.214 1.593 1.047 1.793 1.998zm224.82-13.653c.199.208.308.774.168.98-.671.992-1.443 1.916-2.262 2.946-2.639 3.599-5.164 7.14-7.793 10.603-.344.454-1.458.886-1.809.672-.893-.545-.089-1.126.281-1.743 2.457-4.094 4.835-8.234 7.271-12.342 1.121-1.89 2.944-2.37 4.144-1.116zM383.419 0c.43.036.913.555 1.203.984 1.065 1.57.505 3.337.294 4.97-.37 2.847-1.039 5.655-1.561 8.483-.243 1.322-.435 2.653-.65 4.143-.429 2.217-.897 4.263-1.281 6.325-.697 3.746-1.32 7.506-2.021 11.252a487.242 487.242 0 01-1.861 9.352c-1.058 5.11-2.11 10.222-3.242 15.315-.311 1.397-1.4 1.92-2.292 1.252-.301-.226-.601-.803-.53-1.138 1.67-7.79 3.459-15.555 5.079-23.356 1.19-5.736 2.042-11.545 3.284-17.268 1.183-5.452 1.792-10.918 1.618-16.497-.03-.965.422-1.984.815-2.907.177-.418.778-.94 1.145-.91zm-88.43 38.69c.314.53.637 1.056.955 1.75.531 2.823 1.079 5.475 1.586 8.136.256 1.341.453 2.695.644 4.048.048.337-.028.692-.047 1.038-.468-.078-1.224.002-1.356-.262-.683-1.357-1.296-2.77-1.758-4.225-.53-1.666-.751-3.446-1.348-5.08-.327-.894-1.216-1.546-1.734-2.386-.448-.727-.975-1.559-.996-2.358-.014-.513.754-1.375 1.298-1.506.951-.23 2.082-.294 2.756.845z" fill="#8C8BDF"/><path d="M186.472 201.551c1.935-.519 3.336-1.566 3.129-2.34-.208-.774-1.945-.98-3.88-.462-1.935.519-3.336 1.566-3.128 2.34.207.774 1.944.981 3.879.462z" fill="#FFB61D"/><path fill-rule="evenodd" clip-rule="evenodd" d="M199.792 195.26c1.381-.518 2.177-1.565 1.893-2.339-.268-.774-1.29-.981-2.398-.463-1.217.519-2.301 1.566-2.307 2.34.011.774 1.321.981 2.812.462z" fill="#FFB61D"/></svg>