<svg width="300" height="168" viewBox="0 0 300 168" fill="none" xmlns="http://www.w3.org/2000/svg"><g clip-path="url(#clip0_928_2533)"><rect width="300" height="168" rx="20" fill="#fff"/><rect x="-16" y="-6" width="56" height="180" rx="2" fill="#000"/><rect x="47" y="76" width="242" height="83" rx="2" fill="#000"/><rect width="76" height="45" rx="2" transform="matrix(1 0 0 -1 213 71)" fill="#000"/><rect width="78" height="45" rx="2" transform="matrix(1 0 0 -1 129 71)" fill="#000"/><rect width="76" height="45" rx="2" transform="matrix(1 0 0 -1 47 71)" fill="#000"/><path d="M72.599 117.673v3.885H59.98v-3.885H72.6zm-11.14-9.845V132h-4.98v-24.172h4.98zm14.692 0V132h-4.963v-24.172h4.963zm10.441 6.209V132h-4.797v-17.963h4.797zm-5.096-4.682c0-.697.243-1.272.73-1.726.487-.454 1.14-.681 1.96-.681.807 0 1.455.227 1.942.681.498.454.747 1.029.747 1.726 0 .698-.25 1.273-.747 1.727-.487.454-1.135.681-1.943.681-.819 0-1.472-.227-1.959-.681-.487-.454-.73-1.029-.73-1.727zm21.78 4.682h4.333v17.365c0 1.638-.366 3.027-1.096 4.167-.719 1.151-1.727 2.02-3.022 2.607-1.294.597-2.8.896-4.515.896-.753 0-1.55-.099-2.39-.299a9.576 9.576 0 01-2.391-.929 6.323 6.323 0 01-1.893-1.594l2.108-2.822a5.954 5.954 0 001.926 1.494c.73.365 1.539.548 2.424.548.863 0 1.594-.161 2.191-.482a3.184 3.184 0 001.378-1.378c.321-.597.482-1.322.482-2.174v-13.248l.465-4.151zm-12.086 9.197v-.348c0-1.373.166-2.618.498-3.736.343-1.129.824-2.097 1.444-2.905a6.57 6.57 0 012.291-1.876c.897-.443 1.91-.664 3.038-.664 1.195 0 2.197.221 3.005.664a5.432 5.432 0 011.992 1.893c.52.808.924 1.765 1.212 2.872.299 1.095.531 2.296.697 3.602v.764a21.244 21.244 0 01-.747 3.486c-.332 1.074-.769 2.015-1.311 2.823a5.81 5.81 0 01-2.026 1.859c-.796.443-1.748.664-2.855.664s-2.108-.227-3.005-.681a6.703 6.703 0 01-2.274-1.909c-.631-.819-1.118-1.782-1.461-2.888-.332-1.107-.498-2.314-.498-3.62zm4.781-.348v.348c0 .742.072 1.434.216 2.076.144.641.365 1.211.664 1.71.31.487.692.868 1.145 1.145.465.266 1.013.398 1.644.398.874 0 1.588-.182 2.142-.547a3.45 3.45 0 001.245-1.544c.276-.653.437-1.406.481-2.258v-2.175a7.338 7.338 0 00-.282-1.876 4.514 4.514 0 00-.697-1.444 3.008 3.008 0 00-1.163-.93c-.475-.221-1.04-.332-1.693-.332-.63 0-1.179.144-1.643.432a3.53 3.53 0 00-1.146 1.145c-.299.487-.526 1.063-.68 1.727a9.195 9.195 0 00-.233 2.125zm21.381-16.386V132h-4.781v-25.5h4.781zm-.68 15.888h-1.312c.011-1.251.177-2.402.498-3.453.321-1.063.781-1.982 1.378-2.756a6.355 6.355 0 012.142-1.826c.841-.432 1.771-.648 2.789-.648.885 0 1.688.127 2.407.382a4.47 4.47 0 011.876 1.195c.531.543.941 1.256 1.229 2.142.287.885.431 1.959.431 3.221V132h-4.814v-11.389c0-.797-.116-1.422-.349-1.876-.221-.464-.548-.791-.979-.979-.421-.199-.941-.299-1.561-.299-.686 0-1.273.127-1.76.382a3.021 3.021 0 00-1.145 1.062 4.714 4.714 0 00-.631 1.561 8.854 8.854 0 00-.199 1.926zm40.571 1.593h4.964c-.099 1.627-.548 3.072-1.344 4.333-.786 1.262-1.888 2.247-3.304 2.956-1.406.708-3.099 1.062-5.08 1.062-1.55 0-2.939-.266-4.167-.797a8.869 8.869 0 01-3.155-2.324c-.863-1.007-1.521-2.225-1.975-3.652-.454-1.428-.681-3.027-.681-4.798v-1.677c0-1.771.233-3.37.697-4.798.476-1.439 1.151-2.662 2.026-3.669a9.016 9.016 0 013.171-2.324c1.228-.542 2.601-.814 4.117-.814 2.014 0 3.713.366 5.097 1.096 1.394.731 2.473 1.738 3.237 3.022.775 1.284 1.239 2.744 1.394 4.382h-4.98c-.055-.973-.249-1.798-.581-2.473a3.298 3.298 0 00-1.511-1.544c-.664-.354-1.549-.531-2.656-.531-.83 0-1.555.155-2.175.465-.62.309-1.14.78-1.56 1.411-.421.631-.736 1.427-.947 2.39-.199.952-.299 2.07-.299 3.354v1.71c0 1.25.095 2.352.283 3.303.188.941.476 1.738.863 2.391a4.02 4.02 0 001.527 1.461c.631.321 1.389.481 2.275.481 1.04 0 1.898-.166 2.573-.498a3.438 3.438 0 001.544-1.477c.365-.653.581-1.467.647-2.441zm8.532-.78v-.348c0-1.318.188-2.529.565-3.636.376-1.118.924-2.086 1.643-2.905a7.377 7.377 0 012.656-1.91c1.052-.464 2.258-.697 3.62-.697 1.361 0 2.573.233 3.635.697 1.063.454 1.954 1.091 2.673 1.91.731.819 1.284 1.787 1.66 2.905.377 1.107.565 2.318.565 3.636v.348c0 1.306-.188 2.518-.565 3.636a8.455 8.455 0 01-1.66 2.905 7.355 7.355 0 01-2.656 1.909c-1.051.454-2.258.681-3.619.681-1.361 0-2.573-.227-3.636-.681a7.523 7.523 0 01-2.673-1.909 8.616 8.616 0 01-1.643-2.905c-.377-1.118-.565-2.33-.565-3.636zm4.781-.348v.348c0 .753.067 1.456.2 2.109s.343 1.228.631 1.726c.298.487.686.869 1.162 1.146.476.276 1.057.415 1.743.415.664 0 1.234-.139 1.71-.415a3.153 3.153 0 001.145-1.146 5.692 5.692 0 00.631-1.726 9.784 9.784 0 00.216-2.109v-.348a9.39 9.39 0 00-.216-2.059 5.436 5.436 0 00-.647-1.727 3.22 3.22 0 00-1.146-1.195c-.476-.288-1.051-.432-1.726-.432s-1.251.144-1.727.432a3.389 3.389 0 00-1.145 1.195 5.698 5.698 0 00-.631 1.727c-.133.642-.2 1.328-.2 2.059zm21.216-4.981V132h-4.781v-17.963h4.482l.299 3.835zm-.697 4.516h-1.295c0-1.328.171-2.524.514-3.586.344-1.074.825-1.987 1.445-2.74a6.222 6.222 0 012.208-1.743c.863-.409 1.826-.614 2.888-.614.842 0 1.611.122 2.308.365a4.425 4.425 0 011.793 1.162c.509.532.897 1.234 1.162 2.109.277.874.415 1.942.415 3.204V132h-4.814v-11.472c0-.797-.111-1.416-.332-1.859a1.866 1.866 0 00-.98-.93c-.42-.188-.941-.282-1.56-.282-.642 0-1.201.127-1.677.382a3.332 3.332 0 00-1.162 1.062 5.014 5.014 0 00-.681 1.561 7.65 7.65 0 00-.232 1.926zm25.233-8.351v3.387h-10.459v-3.387h10.459zm-7.869-4.433h4.781v16.984c0 .52.066.919.199 1.195.144.277.354.471.631.581.277.1.625.15 1.046.15.299 0 .564-.011.797-.034.243-.033.448-.066.614-.099l.017 3.519a9.05 9.05 0 01-1.329.316 9.894 9.894 0 01-1.577.116c-1.051 0-1.97-.172-2.756-.515a3.798 3.798 0 01-1.793-1.693c-.42-.775-.63-1.793-.63-3.055v-17.465zm16.733 8.351V132h-4.782v-17.963h4.499l.283 3.918zm5.412-4.034l-.083 4.433a11.1 11.1 0 00-.847-.083 8.387 8.387 0 00-.88-.05c-.675 0-1.262.088-1.76.265a3.137 3.137 0 00-1.228.747 3.262 3.262 0 00-.731 1.212 5.954 5.954 0 00-.265 1.627l-.963-.299c0-1.162.116-2.23.349-3.204.232-.985.57-1.842 1.012-2.573.454-.73 1.007-1.295 1.66-1.693.653-.399 1.4-.598 2.242-.598.265 0 .536.022.813.066.277.034.504.083.681.15zm12.748 14.028v-8.002c0-.575-.094-1.068-.282-1.477a2.1 2.1 0 00-.88-.98c-.387-.232-.891-.348-1.51-.348-.532 0-.991.094-1.378.282a1.99 1.99 0 00-.897.78c-.21.332-.315.725-.315 1.179h-4.782c0-.764.178-1.489.532-2.175.354-.686.869-1.289 1.544-1.81.675-.531 1.477-.946 2.407-1.245.941-.299 1.992-.448 3.154-.448 1.395 0 2.634.233 3.719.697 1.085.465 1.937 1.162 2.557 2.092.63.93.946 2.092.946 3.486v7.687c0 .985.061 1.793.182 2.424a6.37 6.37 0 00.532 1.627V132h-4.831c-.233-.487-.41-1.096-.532-1.826a15.148 15.148 0 01-.166-2.225zm.631-6.889l.033 2.706h-2.672c-.631 0-1.179.072-1.644.215-.465.144-.847.349-1.145.615a2.358 2.358 0 00-.664.896 3.1 3.1 0 00-.2 1.129c0 .41.094.78.283 1.112.188.321.459.576.813.764.354.177.769.266 1.245.266.72 0 1.345-.144 1.876-.432.531-.288.941-.642 1.229-1.062.298-.421.453-.819.464-1.196l1.262 2.026c-.177.453-.42.924-.73 1.411a6.603 6.603 0 01-1.146 1.378 5.932 5.932 0 01-1.677 1.046c-.653.265-1.427.398-2.324.398-1.14 0-2.175-.227-3.104-.681-.919-.464-1.649-1.101-2.192-1.909-.531-.819-.797-1.749-.797-2.789 0-.941.178-1.776.532-2.507a4.89 4.89 0 011.56-1.842c.698-.51 1.566-.891 2.607-1.146 1.04-.266 2.246-.398 3.619-.398h2.772zm18.941 5.976c0-.343-.099-.653-.298-.93-.2-.276-.57-.531-1.113-.763-.531-.244-1.3-.465-2.307-.664-.908-.2-1.755-.449-2.54-.747a8.811 8.811 0 01-2.026-1.113 4.83 4.83 0 01-1.328-1.527c-.321-.598-.481-1.278-.481-2.042 0-.753.16-1.461.481-2.125a5.475 5.475 0 011.411-1.76c.62-.52 1.373-.924 2.258-1.212.896-.299 1.904-.448 3.021-.448 1.561 0 2.9.249 4.018.747 1.129.498 1.992 1.184 2.59 2.059.609.863.913 1.848.913 2.955h-4.781c0-.465-.1-.88-.299-1.245a1.967 1.967 0 00-.897-.88c-.398-.222-.918-.332-1.56-.332-.531 0-.991.094-1.378.282a2.126 2.126 0 00-.897.73 1.76 1.76 0 00-.298.997c0 .276.055.525.166.747.121.21.315.404.581.581.265.177.608.343 1.029.498.432.144.963.276 1.594.398 1.295.266 2.451.614 3.469 1.046 1.019.421 1.827.996 2.424 1.727.598.719.897 1.665.897 2.839 0 .796-.177 1.527-.531 2.191-.355.664-.864 1.245-1.528 1.743-.664.487-1.461.869-2.39 1.146-.919.265-1.954.398-3.105.398-1.671 0-3.088-.299-4.25-.896-1.151-.598-2.025-1.356-2.623-2.275-.587-.93-.88-1.881-.88-2.855h4.532c.023.653.189 1.178.498 1.577.321.398.725.686 1.212.863a4.777 4.777 0 001.611.266c.619 0 1.134-.083 1.544-.249.409-.177.719-.41.929-.698.222-.298.332-.641.332-1.029zm17.912-12.999v3.387h-10.459v-3.387h10.459zm-7.869-4.433h4.781v16.984c0 .52.067.919.199 1.195.144.277.355.471.631.581.277.1.626.15 1.046.15.299 0 .565-.011.797-.034.244-.033.448-.066.614-.099l.017 3.519c-.41.133-.852.238-1.328.316a9.912 9.912 0 01-1.577.116c-1.052 0-1.97-.172-2.756-.515a3.79 3.79 0 01-1.793-1.693c-.421-.775-.631-1.793-.631-3.055v-17.465z" fill="#fff"/><rect x="47" y="9" width="242" height="11" rx="2" fill="#000"/></g><defs><clipPath id="clip0_928_2533"><rect width="300" height="168" rx="20" fill="#fff"/></clipPath></defs></svg>