<svg width="64" height="80" viewBox="0 0 64 80" fill="none" xmlns="http://www.w3.org/2000/svg"><path d="M58.9 22.7L27 2.2c-3.5-2.3-8-2.2-11.4.3-3.4 2.5-4.9 6.7-3.8 10.8l4 13.5L3.5 39.9c-6.8 7.8.3 14.6.4 14.7l.1.1 32.4 23.8c.1.1.2.1.3.2 1.2.5 2.5.7 3.7.7 2.6 0 5.1-1 7.1-3 2.8-2.9 3.7-7 2.2-10.8l-4.5-13.8L59 39.4c2.8-1.9 4.4-5 4.4-8.3.1-3.4-1.6-6.6-4.5-8.4zm-12.1 44v.1c1.3 3.1.1 5.9-1.5 7.5-1.5 1.6-4.2 2.8-7.3 1.7L5.9 52.3c-.6-.6-4.8-5-.1-10.3l11.1-11.9 6.6 22c.9 3.1 3.1 5.6 6.1 6.7 1.2.4 2.4.7 3.6.7 1.9 0 3.8-.6 5.5-1.7.1 0 .1-.1.2-.1l3.9-3.5 4 12.5zm10.5-29.8c-.1 0-.1.1-.2.1l-13 11.7-7.6-23.2v-.1c-1.3-3.2-4.1-5.4-7.5-6.1-3.4-.6-6.8.5-9.1 3L18.3 24l-3.5-11.7c-.9-3.4.7-6.1 2.6-7.5 1.1-.8 2.5-1.4 4.1-1.4 1.2 0 2.5.3 3.8 1.2l31.9 20.5c2 1.3 3.1 3.5 3.1 5.8.1 2.5-1 4.7-3 6z" fill="#000"/></svg>