<svg width="1920" height="491" viewBox="0 0 1920 491" fill="none" xmlns="http://www.w3.org/2000/svg"><g clip-path="url(#clip0_190_1505)" fill="#fff" fill-opacity=".02"><path d="M862.491 13.214c6.718 0 12.164-5.452 12.164-12.178 0-6.726-5.446-12.179-12.164-12.179S850.327-5.69 850.327 1.036s5.446 12.178 12.164 12.178zm-24.327 0c6.717 0 12.163-5.452 12.163-12.178 0-6.726-5.446-12.179-12.163-12.179C831.446-11.143 826-5.69 826 1.036s5.446 12.178 12.164 12.178zm-36.491 0c6.718 0 12.163-5.452 12.163-12.178 0-6.726-5.445-12.179-12.163-12.179S789.509-5.69 789.509 1.036s5.446 12.178 12.164 12.178zM631.382 1.036c6.718 0 12.164-5.453 12.164-12.179S638.1-23.32 631.382-23.32s-12.164 5.452-12.164 12.178c0 6.726 5.446 12.179 12.164 12.179zm644.668 0c6.72 0 12.17-5.453 12.17-12.179s-5.45-12.178-12.17-12.178c-6.71 0-12.16 5.452-12.16 12.178 0 6.726 5.45 12.179 12.16 12.179zM619.218 37.572c6.718 0 12.164-5.453 12.164-12.18 0-6.725-5.446-12.178-12.164-12.178s-12.163 5.453-12.163 12.179S612.5 37.57 619.218 37.57zm-24.327-12.179c6.718 0 12.164-5.453 12.164-12.179s-5.446-12.178-12.164-12.178-12.164 5.452-12.164 12.178c0 6.726 5.446 12.179 12.164 12.179zM558.4 13.214c6.718 0 12.164-5.452 12.164-12.178 0-6.726-5.446-12.179-12.164-12.179S546.236-5.69 546.236 1.036s5.446 12.178 12.164 12.178zm705.49 24.358c6.72 0 12.16-5.453 12.16-12.18 0-6.725-5.44-12.178-12.16-12.178s-12.16 5.453-12.16 12.179 5.44 12.178 12.16 12.178zm-24.33 12.178c6.72 0 12.17-5.453 12.17-12.178 0-6.727-5.45-12.18-12.17-12.18-6.71 0-12.16 5.454-12.16 12.18 0 6.725 5.45 12.178 12.16 12.178zm-206.78 60.893c6.72 0 12.17-5.453 12.17-12.179s-5.45-12.178-12.17-12.178-12.16 5.452-12.16 12.178c0 6.726 5.44 12.179 12.16 12.179zm-145.962 0c6.718 0 12.164-5.453 12.164-12.179s-5.446-12.178-12.164-12.178-12.163 5.452-12.163 12.178c0 6.726 5.445 12.179 12.163 12.179zm-36.491 0c6.718 0 12.164-5.453 12.164-12.179s-5.446-12.178-12.164-12.178-12.163 5.452-12.163 12.178c0 6.726 5.445 12.179 12.163 12.179zm-24.327 0c6.718 0 12.164-5.453 12.164-12.179S832.718 86.286 826 86.286s-12.164 5.452-12.164 12.178c0 6.726 5.446 12.179 12.164 12.179zm-36.491 0c6.718 0 12.164-5.453 12.164-12.179s-5.446-12.178-12.164-12.178-12.164 5.452-12.164 12.178c0 6.726 5.446 12.179 12.164 12.179zM619.218 74.107c6.718 0 12.164-5.452 12.164-12.178 0-6.726-5.446-12.179-12.164-12.179s-12.163 5.453-12.163 12.179 5.445 12.178 12.163 12.178zm-24.327-12.178c6.718 0 12.164-5.453 12.164-12.179s-5.446-12.178-12.164-12.178-12.164 5.452-12.164 12.178c0 6.726 5.446 12.179 12.164 12.179zM558.4 49.75c6.718 0 12.164-5.453 12.164-12.178 0-6.727-5.446-12.18-12.164-12.18s-12.164 5.454-12.164 12.18c0 6.725 5.446 12.178 12.164 12.178zm-24.327-12.178c6.718 0 12.163-5.453 12.163-12.18 0-6.725-5.445-12.178-12.163-12.178s-12.164 5.453-12.164 12.179 5.446 12.178 12.164 12.178zm-24.328-12.179c6.718 0 12.164-5.453 12.164-12.179s-5.446-12.178-12.164-12.178c-6.717 0-12.163 5.452-12.163 12.178 0 6.726 5.446 12.179 12.163 12.179zm-36.49-12.179c6.717 0 12.163-5.452 12.163-12.178 0-6.726-5.446-12.179-12.163-12.179-6.718 0-12.164 5.453-12.164 12.179s5.446 12.178 12.164 12.178zm924.435 0c6.72 0 12.16-5.452 12.16-12.178 0-6.726-5.44-12.179-12.16-12.179s-12.16 5.453-12.16 12.179 5.44 12.178 12.16 12.178zm-24.33 12.179c6.72 0 12.17-5.453 12.17-12.179s-5.45-12.178-12.17-12.178c-6.71 0-12.16 5.452-12.16 12.178 0 6.726 5.45 12.179 12.16 12.179zm-24.32 24.357c6.71 0 12.16-5.453 12.16-12.178 0-6.727-5.45-12.18-12.16-12.18-6.72 0-12.17 5.454-12.17 12.18 0 6.725 5.45 12.178 12.17 12.178zm-24.33 12.179c6.72 0 12.16-5.453 12.16-12.179s-5.44-12.178-12.16-12.178-12.16 5.452-12.16 12.178c0 6.726 5.44 12.179 12.16 12.179zm-36.49 12.178c6.72 0 12.16-5.452 12.16-12.178 0-6.726-5.44-12.179-12.16-12.179s-12.17 5.453-12.17 12.179 5.45 12.178 12.17 12.178zm-24.33 12.179c6.72 0 12.16-5.453 12.16-12.179s-5.44-12.178-12.16-12.178-12.16 5.452-12.16 12.178c0 6.726 5.44 12.179 12.16 12.179zm-24.33 0c6.72 0 12.17-5.453 12.17-12.179s-5.45-12.178-12.17-12.178c-6.71 0-12.16 5.452-12.16 12.178 0 6.726 5.45 12.179 12.16 12.179zM1057.11 135c6.72 0 12.16-5.453 12.16-12.179s-5.44-12.178-12.16-12.178-12.16 5.452-12.16 12.178c0 6.726 5.44 12.179 12.16 12.179z"/><path d="M1032.78 135c6.72 0 12.17-5.453 12.17-12.179s-5.45-12.178-12.17-12.178-12.16 5.452-12.16 12.178c0 6.726 5.44 12.179 12.16 12.179zm-36.489 12.179c6.719 0 12.159-5.453 12.159-12.179s-5.44-12.179-12.159-12.179c-6.718 0-12.164 5.453-12.164 12.179s5.446 12.179 12.164 12.179zm-24.327 0c6.717 0 12.163-5.453 12.163-12.179s-5.446-12.179-12.163-12.179c-6.718 0-12.164 5.453-12.164 12.179s5.446 12.179 12.164 12.179zm-60.819 0c6.718 0 12.164-5.453 12.164-12.179s-5.446-12.179-12.164-12.179c-6.717 0-12.163 5.453-12.163 12.179s5.446 12.179 12.163 12.179zm-24.327 0c6.718 0 12.164-5.453 12.164-12.179s-5.446-12.179-12.164-12.179-12.163 5.453-12.163 12.179 5.445 12.179 12.163 12.179zm-36.491 0c6.718 0 12.164-5.453 12.164-12.179s-5.446-12.179-12.164-12.179-12.163 5.453-12.163 12.179 5.445 12.179 12.163 12.179zm-24.327 0c6.718 0 12.164-5.453 12.164-12.179s-5.446-12.179-12.164-12.179-12.164 5.453-12.164 12.179 5.446 12.179 12.164 12.179zm-36.491 0c6.718 0 12.164-5.453 12.164-12.179s-5.446-12.179-12.164-12.179-12.164 5.453-12.164 12.179 5.446 12.179 12.164 12.179zM765.182 135c6.718 0 12.163-5.453 12.163-12.179s-5.445-12.178-12.163-12.178-12.164 5.452-12.164 12.178c0 6.726 5.446 12.179 12.164 12.179zm-36.491 0c6.718 0 12.164-5.453 12.164-12.179s-5.446-12.178-12.164-12.178-12.164 5.452-12.164 12.178c0 6.726 5.446 12.179 12.164 12.179zm-24.327-12.179c6.717 0 12.163-5.452 12.163-12.178 0-6.726-5.446-12.179-12.163-12.179-6.718 0-12.164 5.453-12.164 12.179s5.446 12.178 12.164 12.178zM582.727 98.464c6.718 0 12.164-5.452 12.164-12.178 0-6.726-5.446-12.179-12.164-12.179s-12.163 5.453-12.163 12.179 5.445 12.178 12.163 12.178zM558.4 86.286c6.718 0 12.164-5.453 12.164-12.179S565.118 61.93 558.4 61.93s-12.164 5.452-12.164 12.178c0 6.726 5.446 12.179 12.164 12.179zm-24.327-12.179c6.718 0 12.163-5.452 12.163-12.178 0-6.726-5.445-12.179-12.163-12.179s-12.164 5.453-12.164 12.179 5.446 12.178 12.164 12.178zm-36.491-12.178c6.718 0 12.163-5.453 12.163-12.179s-5.445-12.178-12.163-12.178-12.164 5.452-12.164 12.178c0 6.726 5.446 12.179 12.164 12.179zM473.255 49.75c6.717 0 12.163-5.453 12.163-12.178 0-6.727-5.446-12.18-12.163-12.18-6.718 0-12.164 5.454-12.164 12.18 0 6.725 5.446 12.178 12.164 12.178zm-24.328-12.178c6.718 0 12.164-5.453 12.164-12.18 0-6.725-5.446-12.178-12.164-12.178-6.717 0-12.163 5.453-12.163 12.179s5.446 12.178 12.163 12.178zM424.6 25.393c6.718 0 12.164-5.453 12.164-12.179S431.318 1.036 424.6 1.036s-12.164 5.452-12.164 12.178c0 6.726 5.446 12.179 12.164 12.179zm-36.491-12.179c6.718 0 12.164-5.452 12.164-12.178 0-6.726-5.446-12.179-12.164-12.179S375.945-5.69 375.945 1.036s5.446 12.178 12.164 12.178zm1094.731 0c6.71 0 12.16-5.452 12.16-12.178 0-6.726-5.45-12.179-12.16-12.179-6.72 0-12.17 5.453-12.17 12.179s5.45 12.178 12.17 12.178zm-36.49 12.179c6.71 0 12.16-5.453 12.16-12.179s-5.45-12.178-12.16-12.178c-6.72 0-12.17 5.452-12.17 12.178 0 6.726 5.45 12.179 12.17 12.179zm-24.33 12.179c6.72 0 12.16-5.453 12.16-12.18 0-6.725-5.44-12.178-12.16-12.178s-12.17 5.453-12.17 12.179 5.45 12.178 12.17 12.178zm-48.66 36.535c6.72 0 12.17-5.452 12.17-12.178 0-6.726-5.45-12.179-12.17-12.179-6.71 0-12.16 5.453-12.16 12.179s5.45 12.178 12.16 12.178zm-85.14 36.536c6.72 0 12.16-5.453 12.16-12.179s-5.44-12.178-12.16-12.178-12.17 5.452-12.17 12.178c0 6.726 5.45 12.179 12.17 12.179zm-145.97 36.536c6.72 0 12.17-5.453 12.17-12.179s-5.45-12.179-12.17-12.179c-6.71 0-12.16 5.453-12.16 12.179s5.45 12.179 12.16 12.179zm-24.32 12.178c6.72 0 12.16-5.452 12.16-12.178 0-6.726-5.44-12.179-12.16-12.179s-12.17 5.453-12.17 12.179 5.45 12.178 12.17 12.178zm-24.33 0c6.72 0 12.16-5.452 12.16-12.178 0-6.726-5.44-12.179-12.16-12.179s-12.16 5.453-12.16 12.179 5.44 12.178 12.16 12.178zm-36.49 12.179c6.72 0 12.16-5.453 12.16-12.179s-5.44-12.178-12.16-12.178-12.16 5.452-12.16 12.178c0 6.726 5.44 12.179 12.16 12.179zm-24.33 0c6.72 0 12.17-5.453 12.17-12.179s-5.45-12.178-12.17-12.178-12.16 5.452-12.16 12.178c0 6.726 5.44 12.179 12.16 12.179zm-36.489 0c6.719 0 12.159-5.453 12.159-12.179s-5.44-12.178-12.159-12.178c-6.718 0-12.164 5.452-12.164 12.178 0 6.726 5.446 12.179 12.164 12.179zm-24.327 12.178c6.717 0 12.163-5.452 12.163-12.178 0-6.726-5.446-12.179-12.163-12.179-6.718 0-12.164 5.453-12.164 12.179s5.446 12.178 12.164 12.178zm-36.491 0c6.718 0 12.163-5.452 12.163-12.178 0-6.726-5.445-12.179-12.163-12.179s-12.164 5.453-12.164 12.179 5.446 12.178 12.164 12.178zm-24.328 0c6.718 0 12.164-5.452 12.164-12.178 0-6.726-5.446-12.179-12.164-12.179-6.717 0-12.163 5.453-12.163 12.179s5.446 12.178 12.163 12.178zm-36.49 0c6.717 0 12.163-5.452 12.163-12.178 0-6.726-5.446-12.179-12.163-12.179-6.718 0-12.164 5.453-12.164 12.179s5.446 12.178 12.164 12.178zm-24.328 0c6.718 0 12.164-5.452 12.164-12.178 0-6.726-5.446-12.179-12.164-12.179s-12.163 5.453-12.163 12.179 5.445 12.178 12.163 12.178zm-36.491 0c6.718 0 12.164-5.452 12.164-12.178 0-6.726-5.446-12.179-12.164-12.179-6.717 0-12.163 5.453-12.163 12.179s5.446 12.178 12.163 12.178zm-24.327-12.178c6.718 0 12.164-5.453 12.164-12.179s-5.446-12.178-12.164-12.178-12.164 5.452-12.164 12.178c0 6.726 5.446 12.179 12.164 12.179zm-36.491 0c6.718 0 12.164-5.453 12.164-12.179s-5.446-12.178-12.164-12.178-12.163 5.452-12.163 12.178c0 6.726 5.445 12.179 12.163 12.179zm-24.327 0c6.718 0 12.164-5.453 12.164-12.179s-5.446-12.178-12.164-12.178-12.164 5.452-12.164 12.178c0 6.726 5.446 12.179 12.164 12.179zM692.2 159.357c6.718 0 12.164-5.452 12.164-12.178 0-6.726-5.446-12.179-12.164-12.179s-12.164 5.453-12.164 12.179 5.446 12.178 12.164 12.178zm-24.327 0c6.717 0 12.163-5.452 12.163-12.178 0-6.726-5.446-12.179-12.163-12.179-6.718 0-12.164 5.453-12.164 12.179s5.446 12.178 12.164 12.178zm-24.328-12.178c6.718 0 12.164-5.453 12.164-12.179s-5.446-12.179-12.164-12.179c-6.717 0-12.163 5.453-12.163 12.179s5.446 12.179 12.163 12.179zM497.582 98.464c6.718 0 12.163-5.452 12.163-12.178 0-6.726-5.445-12.179-12.163-12.179s-12.164 5.453-12.164 12.179 5.446 12.178 12.164 12.178zm-24.327-12.178c6.717 0 12.163-5.453 12.163-12.179s-5.446-12.178-12.163-12.178c-6.718 0-12.164 5.452-12.164 12.178 0 6.726 5.446 12.179 12.164 12.179zm-36.491-12.179c6.717 0 12.163-5.452 12.163-12.178 0-6.726-5.446-12.179-12.163-12.179-6.718 0-12.164 5.453-12.164 12.179s5.446 12.178 12.164 12.178zm-24.328-12.178c6.718 0 12.164-5.453 12.164-12.179s-5.446-12.178-12.164-12.178c-6.717 0-12.163 5.452-12.163 12.178 0 6.726 5.446 12.179 12.163 12.179zM388.109 49.75c6.718 0 12.164-5.453 12.164-12.178 0-6.727-5.446-12.18-12.164-12.18s-12.164 5.454-12.164 12.18c0 6.725 5.446 12.178 12.164 12.178zm-24.327-24.357c6.718 0 12.163-5.453 12.163-12.179S370.5 1.036 363.782 1.036s-12.164 5.452-12.164 12.178c0 6.726 5.446 12.179 12.164 12.179zm-24.327-12.179c6.717 0 12.163-5.452 12.163-12.178 0-6.726-5.446-12.179-12.163-12.179-6.718 0-12.164 5.453-12.164 12.179s5.446 12.178 12.164 12.178zM315.127 1.036c6.718 0 12.164-5.453 12.164-12.179s-5.446-12.178-12.164-12.178-12.163 5.452-12.163 12.178c0 6.726 5.445 12.179 12.163 12.179zm802.803 194.857c6.72 0 12.16-5.453 12.16-12.179s-5.44-12.178-12.16-12.178-12.17 5.452-12.17 12.178c0 6.726 5.45 12.179 12.17 12.179zm-36.49 0c6.71 0 12.16-5.453 12.16-12.179s-5.45-12.178-12.16-12.178c-6.72 0-12.17 5.452-12.17 12.178 0 6.726 5.45 12.179 12.17 12.179zm-24.33 12.178c6.72 0 12.16-5.452 12.16-12.178 0-6.726-5.44-12.179-12.16-12.179s-12.16 5.453-12.16 12.179 5.44 12.178 12.16 12.178zm-36.49 0c6.72 0 12.16-5.452 12.16-12.178 0-6.726-5.44-12.179-12.16-12.179s-12.17 5.453-12.17 12.179 5.45 12.178 12.17 12.178zm-24.329 0c6.719 0 12.159-5.452 12.159-12.178 0-6.726-5.44-12.179-12.159-12.179-6.718 0-12.164 5.453-12.164 12.179s5.446 12.178 12.164 12.178zm-36.491 0c6.718 0 12.164-5.452 12.164-12.178 0-6.726-5.446-12.179-12.164-12.179s-12.164 5.453-12.164 12.179 5.446 12.178 12.164 12.178zm-24.327 12.179c6.718 0 12.163-5.453 12.163-12.179s-5.445-12.178-12.163-12.178-12.164 5.452-12.164 12.178c0 6.726 5.446 12.179 12.164 12.179zm-36.491 0c6.718 0 12.163-5.453 12.163-12.179s-5.445-12.178-12.163-12.178-12.164 5.452-12.164 12.178c0 6.726 5.446 12.179 12.164 12.179zm-24.327 0c6.717 0 12.163-5.453 12.163-12.179s-5.446-12.178-12.163-12.178c-6.718 0-12.164 5.452-12.164 12.178 0 6.726 5.446 12.179 12.164 12.179zm-36.491-12.179c6.717 0 12.163-5.452 12.163-12.178 0-6.726-5.446-12.179-12.163-12.179-6.718 0-12.164 5.453-12.164 12.179s5.446 12.178 12.164 12.178zm-24.328 0c6.718 0 12.164-5.452 12.164-12.178 0-6.726-5.446-12.179-12.164-12.179-6.717 0-12.163 5.453-12.163 12.179s5.446 12.178 12.163 12.178zm-36.491 0c6.718 0 12.164-5.452 12.164-12.178 0-6.726-5.446-12.179-12.164-12.179-6.717 0-12.163 5.453-12.163 12.179s5.446 12.178 12.163 12.178zm-24.327 0c6.718 0 12.164-5.452 12.164-12.178 0-6.726-5.446-12.179-12.164-12.179s-12.163 5.453-12.163 12.179 5.445 12.178 12.163 12.178zm-24.327-12.178c6.718 0 12.164-5.453 12.164-12.179s-5.446-12.178-12.164-12.178-12.164 5.452-12.164 12.178c0 6.726 5.446 12.179 12.164 12.179zm-36.491 0c6.718 0 12.164-5.453 12.164-12.179s-5.446-12.178-12.164-12.178-12.164 5.452-12.164 12.178c0 6.726 5.446 12.179 12.164 12.179zm-24.327-12.179c6.717 0 12.163-5.452 12.163-12.178 0-6.726-5.446-12.179-12.163-12.179-6.718 0-12.164 5.453-12.164 12.179s5.446 12.178 12.164 12.178zM351.618 61.929c6.718 0 12.164-5.453 12.164-12.179s-5.446-12.178-12.164-12.178-12.163 5.452-12.163 12.178c0 6.726 5.445 12.179 12.163 12.179zM327.291 49.75c6.718 0 12.164-5.453 12.164-12.178 0-6.727-5.446-12.18-12.164-12.18s-12.164 5.454-12.164 12.18c0 6.725 5.446 12.178 12.164 12.178zm-24.327-12.178c6.717 0 12.163-5.453 12.163-12.18 0-6.725-5.446-12.178-12.163-12.178-6.718 0-12.164 5.453-12.164 12.179s5.446 12.178 12.164 12.178zm693.327 207.035c6.719 0 12.159-5.452 12.159-12.178 0-6.726-5.44-12.179-12.159-12.179-6.718 0-12.164 5.453-12.164 12.179s5.446 12.178 12.164 12.178zm-36.491 0c6.718 0 12.164-5.452 12.164-12.178 0-6.726-5.446-12.179-12.164-12.179s-12.164 5.453-12.164 12.179 5.446 12.178 12.164 12.178zm-24.327 0c6.718 0 12.163-5.452 12.163-12.178 0-6.726-5.445-12.179-12.163-12.179s-12.164 5.453-12.164 12.179 5.446 12.178 12.164 12.178zm-36.491 0c6.718 0 12.163-5.452 12.163-12.178 0-6.726-5.445-12.179-12.163-12.179s-12.164 5.453-12.164 12.179 5.446 12.178 12.164 12.178zm-24.327 0c6.717 0 12.163-5.452 12.163-12.178 0-6.726-5.446-12.179-12.163-12.179-6.718 0-12.164 5.453-12.164 12.179s5.446 12.178 12.164 12.178zm-36.491 0c6.717 0 12.163-5.452 12.163-12.178 0-6.726-5.446-12.179-12.163-12.179-6.718 0-12.164 5.453-12.164 12.179s5.446 12.178 12.164 12.178zm-24.328 0c6.718 0 12.164-5.452 12.164-12.178 0-6.726-5.446-12.179-12.164-12.179-6.717 0-12.163 5.453-12.163 12.179s5.446 12.178 12.163 12.178zm-36.491 0c6.718 0 12.164-5.452 12.164-12.178 0-6.726-5.446-12.179-12.164-12.179-6.717 0-12.163 5.453-12.163 12.179s5.446 12.178 12.163 12.178zm-24.327-12.178c6.718 0 12.164-5.453 12.164-12.179s-5.446-12.179-12.164-12.179-12.163 5.453-12.163 12.179 5.445 12.179 12.163 12.179zm-36.491 0c6.718 0 12.164-5.453 12.164-12.179s-5.446-12.179-12.164-12.179-12.163 5.453-12.163 12.179 5.445 12.179 12.163 12.179zm-24.327 0c6.718 0 12.164-5.453 12.164-12.179s-5.446-12.179-12.164-12.179-12.164 5.453-12.164 12.179 5.446 12.179 12.164 12.179zM327.291 86.286c6.718 0 12.164-5.453 12.164-12.179s-5.446-12.178-12.164-12.178-12.164 5.452-12.164 12.178c0 6.726 5.446 12.179 12.164 12.179zm1228.529 0c6.72 0 12.16-5.453 12.16-12.179s-5.44-12.178-12.16-12.178-12.17 5.452-12.17 12.178c0 6.726 5.45 12.179 12.17 12.179zM1470.67 135c6.72 0 12.17-5.453 12.17-12.179s-5.45-12.178-12.17-12.178c-6.71 0-12.16 5.452-12.16 12.178 0 6.726 5.45 12.179 12.16 12.179zm-24.32 12.179c6.71 0 12.16-5.453 12.16-12.179s-5.45-12.179-12.16-12.179c-6.72 0-12.17 5.453-12.17 12.179s5.45 12.179 12.17 12.179zm-24.33 12.178c6.72 0 12.16-5.452 12.16-12.178 0-6.726-5.44-12.179-12.16-12.179s-12.17 5.453-12.17 12.179 5.45 12.178 12.17 12.178zm-24.33 12.179c6.72 0 12.16-5.453 12.16-12.179s-5.44-12.178-12.16-12.178-12.16 5.452-12.16 12.178c0 6.726 5.44 12.179 12.16 12.179zm-36.49 12.178c6.72 0 12.16-5.452 12.16-12.178 0-6.726-5.44-12.179-12.16-12.179s-12.16 5.453-12.16 12.179 5.44 12.178 12.16 12.178zm-24.33 12.179c6.72 0 12.17-5.453 12.17-12.179s-5.45-12.178-12.17-12.178-12.16 5.452-12.16 12.178c0 6.726 5.44 12.179 12.16 12.179zm-24.32 12.178c6.71 0 12.16-5.452 12.16-12.178 0-6.726-5.45-12.179-12.16-12.179-6.72 0-12.17 5.453-12.17 12.179s5.45 12.178 12.17 12.178zM959.8 281.143c6.718 0 12.164-5.453 12.164-12.179s-5.446-12.178-12.164-12.178-12.164 5.452-12.164 12.178c0 6.726 5.446 12.179 12.164 12.179zm-36.491 0c6.718 0 12.164-5.453 12.164-12.179s-5.446-12.178-12.164-12.178-12.164 5.452-12.164 12.178c0 6.726 5.446 12.179 12.164 12.179zm-24.327 0c6.718 0 12.163-5.453 12.163-12.179s-5.445-12.178-12.163-12.178-12.164 5.452-12.164 12.178c0 6.726 5.446 12.179 12.164 12.179zm-36.491 0c6.718 0 12.164-5.453 12.164-12.179s-5.446-12.178-12.164-12.178-12.164 5.452-12.164 12.178c0 6.726 5.446 12.179 12.164 12.179zm-24.327 0c6.717 0 12.163-5.453 12.163-12.179s-5.446-12.178-12.163-12.178c-6.718 0-12.164 5.452-12.164 12.178 0 6.726 5.446 12.179 12.164 12.179zm-36.491 0c6.718 0 12.163-5.453 12.163-12.179s-5.445-12.178-12.163-12.178-12.164 5.452-12.164 12.178c0 6.726 5.446 12.179 12.164 12.179zm-24.328 0c6.718 0 12.164-5.453 12.164-12.179s-5.446-12.178-12.164-12.178c-6.717 0-12.163 5.452-12.163 12.178 0 6.726 5.446 12.179 12.163 12.179zm-36.49-12.179c6.717 0 12.163-5.452 12.163-12.178 0-6.726-5.446-12.179-12.163-12.179-6.718 0-12.164 5.453-12.164 12.179s5.446 12.178 12.164 12.178zm-24.328 0c6.718 0 12.164-5.452 12.164-12.178 0-6.726-5.446-12.179-12.164-12.179s-12.163 5.453-12.163 12.179 5.445 12.178 12.163 12.178zM692.2 256.786c6.718 0 12.164-5.453 12.164-12.179s-5.446-12.178-12.164-12.178-12.164 5.452-12.164 12.178c0 6.726 5.446 12.179 12.164 12.179zm778.47-85.25c6.72 0 12.17-5.453 12.17-12.179s-5.45-12.178-12.17-12.178c-6.71 0-12.16 5.452-12.16 12.178 0 6.726 5.45 12.179 12.16 12.179zm-24.32 12.178c6.71 0 12.16-5.452 12.16-12.178 0-6.726-5.45-12.179-12.16-12.179-6.72 0-12.17 5.453-12.17 12.179s5.45 12.178 12.17 12.178zm-24.33 12.179c6.72 0 12.16-5.453 12.16-12.179s-5.44-12.178-12.16-12.178-12.17 5.452-12.17 12.178c0 6.726 5.45 12.179 12.17 12.179zm-36.49 12.178c6.72 0 12.16-5.452 12.16-12.178 0-6.726-5.44-12.179-12.16-12.179s-12.17 5.453-12.17 12.179 5.45 12.178 12.17 12.178zm-24.33 12.179c6.72 0 12.16-5.453 12.16-12.179s-5.44-12.178-12.16-12.178-12.16 5.452-12.16 12.178c0 6.726 5.44 12.179 12.16 12.179zm-24.33 12.179c6.72 0 12.17-5.453 12.17-12.179s-5.45-12.179-12.17-12.179-12.16 5.453-12.16 12.179 5.44 12.179 12.16 12.179zm-24.32 12.178c6.71 0 12.16-5.452 12.16-12.178 0-6.726-5.45-12.179-12.16-12.179-6.72 0-12.17 5.453-12.17 12.179s5.45 12.178 12.17 12.178zm-36.5 12.179c6.72 0 12.17-5.453 12.17-12.179s-5.45-12.178-12.17-12.178c-6.71 0-12.16 5.452-12.16 12.178 0 6.726 5.45 12.179 12.16 12.179zm-24.32 12.178c6.71 0 12.16-5.452 12.16-12.178 0-6.726-5.45-12.179-12.16-12.179-6.72 0-12.17 5.453-12.17 12.179s5.45 12.178 12.17 12.178zm-36.49 0c6.71 0 12.16-5.452 12.16-12.178 0-6.726-5.45-12.179-12.16-12.179-6.72 0-12.17 5.453-12.17 12.179s5.45 12.178 12.17 12.178zm-24.33 12.179c6.72 0 12.16-5.453 12.16-12.179s-5.44-12.178-12.16-12.178-12.16 5.452-12.16 12.178c0 6.726 5.44 12.179 12.16 12.179zm-60.82 12.178c6.72 0 12.16-5.452 12.16-12.178 0-6.726-5.44-12.179-12.16-12.179s-12.16 5.453-12.16 12.179 5.44 12.178 12.16 12.178zm-24.33 12.179c6.72 0 12.17-5.452 12.17-12.178 0-6.727-5.45-12.179-12.17-12.179-6.71 0-12.16 5.452-12.16 12.179 0 6.726 5.45 12.178 12.16 12.178zm-36.49 0c6.72 0 12.17-5.452 12.17-12.178 0-6.727-5.45-12.179-12.17-12.179s-12.16 5.452-12.16 12.179c0 6.726 5.44 12.178 12.16 12.178zm-24.32 0c6.71 0 12.16-5.452 12.16-12.178 0-6.727-5.45-12.179-12.16-12.179-6.72 0-12.17 5.452-12.17 12.179 0 6.726 5.45 12.178 12.17 12.178zm-36.5 0c6.72 0 12.17-5.452 12.17-12.178 0-6.727-5.45-12.179-12.17-12.179-6.71 0-12.159 5.452-12.159 12.179 0 6.726 5.449 12.178 12.159 12.178zm-24.323 12.179c6.718 0 12.164-5.453 12.164-12.179s-5.446-12.179-12.164-12.179c-6.717 0-12.163 5.453-12.163 12.179s5.446 12.179 12.163 12.179zm-36.491 0c6.718 0 12.164-5.453 12.164-12.179s-5.446-12.179-12.164-12.179c-6.717 0-12.163 5.453-12.163 12.179s5.446 12.179 12.163 12.179zm-24.327 0c6.718 0 12.164-5.453 12.164-12.179s-5.446-12.179-12.164-12.179-12.164 5.453-12.164 12.179 5.446 12.179 12.164 12.179zm-36.491 0c6.718 0 12.164-5.453 12.164-12.179s-5.446-12.179-12.164-12.179-12.163 5.453-12.163 12.179 5.445 12.179 12.163 12.179zm-24.327 0c6.718 0 12.164-5.453 12.164-12.179s-5.446-12.179-12.164-12.179-12.164 5.453-12.164 12.179 5.446 12.179 12.164 12.179zm-24.327 0c6.717 0 12.163-5.453 12.163-12.179s-5.446-12.179-12.163-12.179c-6.718 0-12.164 5.453-12.164 12.179s5.446 12.179 12.164 12.179zm-36.491 0c6.718 0 12.163-5.453 12.163-12.179s-5.445-12.179-12.163-12.179-12.164 5.453-12.164 12.179 5.446 12.179 12.164 12.179zM777.345 305.5c6.718 0 12.164-5.452 12.164-12.178 0-6.727-5.446-12.179-12.164-12.179-6.717 0-12.163 5.452-12.163 12.179 0 6.726 5.446 12.178 12.163 12.178zm-36.49 0c6.717 0 12.163-5.452 12.163-12.178 0-6.727-5.446-12.179-12.163-12.179-6.718 0-12.164 5.452-12.164 12.179 0 6.726 5.446 12.178 12.164 12.178zm-24.328 0c6.718 0 12.164-5.452 12.164-12.178 0-6.727-5.446-12.179-12.164-12.179s-12.163 5.452-12.163 12.179c0 6.726 5.445 12.178 12.163 12.178zM1762.6 1.036c6.72 0 12.16-5.453 12.16-12.179s-5.44-12.178-12.16-12.178-12.16 5.452-12.16 12.178c0 6.726 5.44 12.179 12.16 12.179zm-24.33 12.178c6.72 0 12.17-5.452 12.17-12.178 0-6.726-5.45-12.179-12.17-12.179s-12.16 5.453-12.16 12.179 5.44 12.178 12.16 12.178zm-24.32 24.358c6.71 0 12.16-5.453 12.16-12.18 0-6.725-5.45-12.178-12.16-12.178-6.72 0-12.17 5.453-12.17 12.179s5.45 12.178 12.17 12.178zm-24.33 24.357c6.72 0 12.16-5.453 12.16-12.179s-5.44-12.178-12.16-12.178-12.17 5.452-12.17 12.178c0 6.726 5.45 12.179 12.17 12.179zm-24.33 12.178c6.72 0 12.16-5.452 12.16-12.178 0-6.726-5.44-12.179-12.16-12.179s-12.16 5.453-12.16 12.179 5.44 12.178 12.16 12.178zm-12.16 24.357c6.72 0 12.16-5.452 12.16-12.178 0-6.726-5.44-12.179-12.16-12.179s-12.17 5.453-12.17 12.179 5.45 12.178 12.17 12.178zm-24.33 12.179c6.72 0 12.16-5.453 12.16-12.179s-5.44-12.178-12.16-12.178-12.16 5.452-12.16 12.178c0 6.726 5.44 12.179 12.16 12.179zM1604.47 135c6.72 0 12.17-5.453 12.17-12.179s-5.45-12.178-12.17-12.178-12.16 5.452-12.16 12.178c0 6.726 5.44 12.179 12.16 12.179zM1495 195.893c6.72 0 12.16-5.453 12.16-12.179s-5.44-12.178-12.16-12.178-12.16 5.452-12.16 12.178c0 6.726 5.44 12.179 12.16 12.179zm-24.33 12.178c6.72 0 12.17-5.452 12.17-12.178 0-6.726-5.45-12.179-12.17-12.179-6.71 0-12.16 5.453-12.16 12.179s5.45 12.178 12.16 12.178zm-24.32 12.179c6.71 0 12.16-5.453 12.16-12.179s-5.45-12.178-12.16-12.178c-6.72 0-12.17 5.452-12.17 12.178 0 6.726 5.45 12.179 12.17 12.179zm-36.5 12.179c6.72 0 12.17-5.453 12.17-12.179s-5.45-12.179-12.17-12.179c-6.71 0-12.16 5.453-12.16 12.179s5.45 12.179 12.16 12.179zm-24.32 12.178c6.72 0 12.16-5.452 12.16-12.178 0-6.726-5.44-12.179-12.16-12.179s-12.17 5.453-12.17 12.179 5.45 12.178 12.17 12.178zm-24.33 12.179c6.72 0 12.16-5.453 12.16-12.179s-5.44-12.178-12.16-12.178-12.16 5.452-12.16 12.178c0 6.726 5.44 12.179 12.16 12.179zm-24.33 12.178c6.72 0 12.17-5.452 12.17-12.178 0-6.726-5.45-12.179-12.17-12.179s-12.16 5.453-12.16 12.179 5.44 12.178 12.16 12.178zm-36.49 12.179c6.72 0 12.17-5.453 12.17-12.179s-5.45-12.178-12.17-12.178-12.16 5.452-12.16 12.178c0 6.726 5.44 12.179 12.16 12.179zm-24.33 12.178c6.72 0 12.17-5.452 12.17-12.178 0-6.726-5.45-12.179-12.17-12.179-6.71 0-12.16 5.453-12.16 12.179s5.45 12.178 12.16 12.178zm-24.32 12.179c6.71 0 12.16-5.452 12.16-12.178 0-6.727-5.45-12.179-12.16-12.179-6.72 0-12.17 5.452-12.17 12.179 0 6.726 5.45 12.178 12.17 12.178zm-36.49 0c6.71 0 12.16-5.452 12.16-12.178 0-6.727-5.45-12.179-12.16-12.179-6.72 0-12.17 5.452-12.17 12.179 0 6.726 5.45 12.178 12.17 12.178zm-24.33 12.179c6.72 0 12.16-5.453 12.16-12.179s-5.44-12.179-12.16-12.179-12.16 5.453-12.16 12.179 5.44 12.179 12.16 12.179zm-36.49 0c6.72 0 12.16-5.453 12.16-12.179s-5.44-12.179-12.16-12.179-12.17 5.453-12.17 12.179 5.45 12.179 12.17 12.179zm-24.33 12.178c6.72 0 12.16-5.452 12.16-12.178 0-6.726-5.44-12.179-12.16-12.179s-12.16 5.453-12.16 12.179 5.44 12.178 12.16 12.178zm-36.49 0c6.72 0 12.16-5.452 12.16-12.178 0-6.726-5.44-12.179-12.16-12.179s-12.16 5.453-12.16 12.179 5.44 12.178 12.16 12.178zm-24.33 12.179c6.72 0 12.17-5.453 12.17-12.179s-5.45-12.178-12.17-12.178-12.16 5.452-12.16 12.178c0 6.726 5.44 12.179 12.16 12.179zm-24.32 0c6.71 0 12.16-5.453 12.16-12.179s-5.45-12.178-12.16-12.178c-6.72 0-12.17 5.452-12.17 12.178 0 6.726 5.45 12.179 12.17 12.179zm-36.5 0c6.72 0 12.17-5.453 12.17-12.179s-5.45-12.178-12.17-12.178c-6.71 0-12.159 5.452-12.159 12.178 0 6.726 5.449 12.179 12.159 12.179zm-24.323 0c6.718 0 12.164-5.453 12.164-12.179s-5.446-12.178-12.164-12.178c-6.717 0-12.163 5.452-12.163 12.178 0 6.726 5.446 12.179 12.163 12.179zm-121.636 12.178c6.718 0 12.164-5.452 12.164-12.178 0-6.726-5.446-12.179-12.164-12.179s-12.164 5.453-12.164 12.179 5.446 12.178 12.164 12.178zM826 342.036c6.718 0 12.164-5.453 12.164-12.179s-5.446-12.178-12.164-12.178-12.164 5.452-12.164 12.178c0 6.726 5.446 12.179 12.164 12.179zm-24.327 0c6.718 0 12.163-5.453 12.163-12.179s-5.445-12.178-12.163-12.178-12.164 5.452-12.164 12.178c0 6.726 5.446 12.179 12.164 12.179zm-36.491 0c6.718 0 12.163-5.453 12.163-12.179s-5.445-12.178-12.163-12.178-12.164 5.452-12.164 12.178c0 6.726 5.446 12.179 12.164 12.179zm-24.327 0c6.717 0 12.163-5.453 12.163-12.179s-5.446-12.178-12.163-12.178c-6.718 0-12.164 5.452-12.164 12.178 0 6.726 5.446 12.179 12.164 12.179zm-36.491-12.179c6.717 0 12.163-5.452 12.163-12.178 0-6.726-5.446-12.179-12.163-12.179-6.718 0-12.164 5.453-12.164 12.179s5.446 12.178 12.164 12.178zM1786.93 13.214c6.72 0 12.16-5.452 12.16-12.178 0-6.726-5.44-12.179-12.16-12.179s-12.17 5.453-12.17 12.179 5.45 12.178 12.17 12.178zm-24.33 24.358c6.72 0 12.16-5.453 12.16-12.18 0-6.725-5.44-12.178-12.16-12.178s-12.16 5.453-12.16 12.179 5.44 12.178 12.16 12.178zm-24.33 24.357c6.72 0 12.17-5.453 12.17-12.179s-5.45-12.178-12.17-12.178-12.16 5.452-12.16 12.178c0 6.726 5.44 12.179 12.16 12.179zm-24.32 24.357c6.71 0 12.16-5.453 12.16-12.179s-5.45-12.178-12.16-12.178c-6.72 0-12.17 5.452-12.17 12.178 0 6.726 5.45 12.179 12.17 12.179zm-24.33 12.178c6.72 0 12.16-5.452 12.16-12.178 0-6.726-5.44-12.179-12.16-12.179s-12.17 5.453-12.17 12.179 5.45 12.178 12.17 12.178zm-24.33 24.357c6.72 0 12.16-5.452 12.16-12.178 0-6.726-5.44-12.179-12.16-12.179s-12.16 5.453-12.16 12.179 5.44 12.178 12.16 12.178z"/><path d="M1653.13 135c6.72 0 12.16-5.453 12.16-12.179s-5.44-12.178-12.16-12.178-12.17 5.452-12.17 12.178c0 6.726 5.45 12.179 12.17 12.179zm-36.49 24.357c6.71 0 12.16-5.452 12.16-12.178 0-6.726-5.45-12.179-12.16-12.179-6.72 0-12.17 5.453-12.17 12.179s5.45 12.178 12.17 12.178zm-97.31 60.893c6.72 0 12.16-5.453 12.16-12.179s-5.44-12.178-12.16-12.178-12.17 5.452-12.17 12.178c0 6.726 5.45 12.179 12.17 12.179zM1495 232.429c6.72 0 12.16-5.453 12.16-12.179s-5.44-12.179-12.16-12.179-12.16 5.453-12.16 12.179 5.44 12.179 12.16 12.179zm-24.33 12.178c6.72 0 12.17-5.452 12.17-12.178 0-6.726-5.45-12.179-12.17-12.179-6.71 0-12.16 5.453-12.16 12.179s5.45 12.178 12.16 12.178zm-24.32 12.179c6.71 0 12.16-5.453 12.16-12.179s-5.45-12.178-12.16-12.178c-6.72 0-12.17 5.452-12.17 12.178 0 6.726 5.45 12.179 12.17 12.179zm-36.5 12.178c6.72 0 12.17-5.452 12.17-12.178 0-6.726-5.45-12.179-12.17-12.179-6.71 0-12.16 5.453-12.16 12.179s5.45 12.178 12.16 12.178zm-24.32 12.179c6.72 0 12.16-5.453 12.16-12.179s-5.44-12.178-12.16-12.178-12.17 5.452-12.17 12.178c0 6.726 5.45 12.179 12.17 12.179zm-24.33 12.178c6.72 0 12.16-5.452 12.16-12.178 0-6.726-5.44-12.179-12.16-12.179s-12.16 5.453-12.16 12.179 5.44 12.178 12.16 12.178zm-36.49 12.179c6.72 0 12.16-5.452 12.16-12.178 0-6.727-5.44-12.179-12.16-12.179s-12.16 5.452-12.16 12.179c0 6.726 5.44 12.178 12.16 12.178zm-24.33 12.179c6.72 0 12.17-5.453 12.17-12.179s-5.45-12.179-12.17-12.179-12.16 5.453-12.16 12.179 5.44 12.179 12.16 12.179zm-24.33 12.178c6.72 0 12.17-5.452 12.17-12.178 0-6.726-5.45-12.179-12.17-12.179-6.71 0-12.16 5.453-12.16 12.179s5.45 12.178 12.16 12.178zm-36.49 12.179c6.72 0 12.17-5.453 12.17-12.179s-5.45-12.178-12.17-12.178c-6.71 0-12.16 5.452-12.16 12.178 0 6.726 5.45 12.179 12.16 12.179zm-24.32 0c6.71 0 12.16-5.453 12.16-12.179s-5.45-12.178-12.16-12.178c-6.72 0-12.17 5.452-12.17 12.178 0 6.726 5.45 12.179 12.17 12.179zm-36.49 12.178c6.71 0 12.16-5.452 12.16-12.178 0-6.726-5.45-12.179-12.16-12.179-6.72 0-12.17 5.453-12.17 12.179s5.45 12.178 12.17 12.178zm-24.33 0c6.72 0 12.16-5.452 12.16-12.178 0-6.726-5.44-12.179-12.16-12.179s-12.17 5.453-12.17 12.179 5.45 12.178 12.17 12.178zm-24.33 12.179c6.72 0 12.16-5.453 12.16-12.179s-5.44-12.178-12.16-12.178-12.16 5.452-12.16 12.178c0 6.726 5.44 12.179 12.16 12.179zm-36.49 0c6.72 0 12.16-5.453 12.16-12.179s-5.44-12.178-12.16-12.178-12.16 5.452-12.16 12.178c0 6.726 5.44 12.179 12.16 12.179zm-24.33 12.178c6.72 0 12.17-5.452 12.17-12.178 0-6.726-5.45-12.179-12.17-12.179s-12.16 5.453-12.16 12.179 5.44 12.178 12.16 12.178zm-36.49 0c6.72 0 12.17-5.452 12.17-12.178 0-6.726-5.45-12.179-12.17-12.179s-12.16 5.453-12.16 12.179 5.44 12.178 12.16 12.178zm-24.33 0c6.72 0 12.17-5.452 12.17-12.178 0-6.726-5.45-12.179-12.17-12.179-6.71 0-12.159 5.453-12.159 12.179s5.449 12.178 12.159 12.178zm-243.268 0c6.718 0 12.163-5.452 12.163-12.178 0-6.726-5.445-12.179-12.163-12.179s-12.164 5.453-12.164 12.179 5.446 12.178 12.164 12.178zm-36.491-12.178c6.718 0 12.164-5.453 12.164-12.179s-5.446-12.178-12.164-12.178-12.164 5.452-12.164 12.178c0 6.726 5.446 12.179 12.164 12.179zM1799.09 1.036c6.72 0 12.16-5.453 12.16-12.179s-5.44-12.178-12.16-12.178-12.16 5.452-12.16 12.178c0 6.726 5.44 12.179 12.16 12.179zm12.16 36.536c6.72 0 12.17-5.453 12.17-12.18 0-6.725-5.45-12.178-12.17-12.178-6.71 0-12.16 5.453-12.16 12.179s5.45 12.178 12.16 12.178zm-24.32 24.357c6.72 0 12.16-5.453 12.16-12.179s-5.44-12.178-12.16-12.178-12.17 5.452-12.17 12.178c0 6.726 5.45 12.179 12.17 12.179zm-24.33 24.357c6.72 0 12.16-5.453 12.16-12.179s-5.44-12.178-12.16-12.178-12.16 5.452-12.16 12.178c0 6.726 5.44 12.179 12.16 12.179zm-24.33 12.178c6.72 0 12.17-5.452 12.17-12.178 0-6.726-5.45-12.179-12.17-12.179s-12.16 5.453-12.16 12.179 5.44 12.178 12.16 12.178zm-24.32 24.357c6.71 0 12.16-5.452 12.16-12.178 0-6.726-5.45-12.179-12.16-12.179-6.72 0-12.17 5.453-12.17 12.179s5.45 12.178 12.17 12.178zm-24.33 24.358c6.72 0 12.16-5.453 12.16-12.179s-5.44-12.179-12.16-12.179-12.17 5.453-12.17 12.179 5.45 12.179 12.17 12.179zm-24.33 12.178c6.72 0 12.16-5.452 12.16-12.178 0-6.726-5.44-12.179-12.16-12.179s-12.16 5.453-12.16 12.179 5.44 12.178 12.16 12.178zm-24.33 24.357c6.72 0 12.17-5.452 12.17-12.178 0-6.726-5.45-12.179-12.17-12.179-6.71 0-12.16 5.453-12.16 12.179s5.45 12.178 12.16 12.178zm-97.31 60.893c6.72 0 12.17-5.452 12.17-12.178 0-6.726-5.45-12.179-12.17-12.179-6.71 0-12.16 5.453-12.16 12.179s5.45 12.178 12.16 12.178zm-24.32 12.179c6.72 0 12.16-5.453 12.16-12.179s-5.44-12.178-12.16-12.178-12.17 5.452-12.17 12.178c0 6.726 5.45 12.179 12.17 12.179zM1495 268.964c6.72 0 12.16-5.452 12.16-12.178 0-6.726-5.44-12.179-12.16-12.179s-12.16 5.453-12.16 12.179 5.44 12.178 12.16 12.178zm-24.33 24.357c6.72 0 12.17-5.452 12.17-12.178 0-6.726-5.45-12.179-12.17-12.179-6.71 0-12.16 5.453-12.16 12.179s5.45 12.178 12.16 12.178zm-36.49 12.179c6.72 0 12.17-5.452 12.17-12.178 0-6.727-5.45-12.179-12.17-12.179s-12.16 5.452-12.16 12.179c0 6.726 5.44 12.178 12.16 12.178zm-24.33 12.179c6.72 0 12.17-5.453 12.17-12.179s-5.45-12.179-12.17-12.179c-6.71 0-12.16 5.453-12.16 12.179s5.45 12.179 12.16 12.179zm-24.32 12.178c6.72 0 12.16-5.452 12.16-12.178 0-6.726-5.44-12.179-12.16-12.179s-12.17 5.453-12.17 12.179 5.45 12.178 12.17 12.178zm-36.49 0c6.71 0 12.16-5.452 12.16-12.178 0-6.726-5.45-12.179-12.16-12.179-6.72 0-12.17 5.453-12.17 12.179s5.45 12.178 12.17 12.178zm-24.33 12.179c6.72 0 12.16-5.453 12.16-12.179s-5.44-12.178-12.16-12.178-12.16 5.452-12.16 12.178c0 6.726 5.44 12.179 12.16 12.179zm-24.33 12.178c6.72 0 12.17-5.452 12.17-12.178 0-6.726-5.45-12.179-12.17-12.179s-12.16 5.453-12.16 12.179 5.44 12.178 12.16 12.178zm-36.49 12.179c6.72 0 12.16-5.453 12.16-12.179s-5.44-12.178-12.16-12.178-12.16 5.452-12.16 12.178c0 6.726 5.44 12.179 12.16 12.179zm-24.33 12.178c6.72 0 12.17-5.452 12.17-12.178 0-6.726-5.45-12.179-12.17-12.179-6.71 0-12.16 5.453-12.16 12.179s5.45 12.178 12.16 12.178zm-24.32 0c6.71 0 12.16-5.452 12.16-12.178 0-6.726-5.45-12.179-12.16-12.179-6.72 0-12.17 5.453-12.17 12.179s5.45 12.178 12.17 12.178zm-36.49 12.179c6.71 0 12.16-5.452 12.16-12.178 0-6.727-5.45-12.179-12.16-12.179-6.72 0-12.17 5.452-12.17 12.179 0 6.726 5.45 12.178 12.17 12.178z"/><path d="M1154.42 390.75c6.72 0 12.16-5.452 12.16-12.178 0-6.727-5.44-12.179-12.16-12.179s-12.17 5.452-12.17 12.179c0 6.726 5.45 12.178 12.17 12.178zm-36.49 12.179c6.72 0 12.16-5.453 12.16-12.179s-5.44-12.179-12.16-12.179-12.17 5.453-12.17 12.179 5.45 12.179 12.17 12.179zm-24.33 0c6.72 0 12.16-5.453 12.16-12.179s-5.44-12.179-12.16-12.179-12.16 5.453-12.16 12.179 5.44 12.179 12.16 12.179zm-36.49 0c6.72 0 12.16-5.453 12.16-12.179s-5.44-12.179-12.16-12.179-12.16 5.453-12.16 12.179 5.44 12.179 12.16 12.179zM1847.75 1.036c6.71 0 12.16-5.453 12.16-12.179s-5.45-12.178-12.16-12.178c-6.72 0-12.17 5.452-12.17 12.178 0 6.726 5.45 12.179 12.17 12.179zm-24.33 24.357c6.72 0 12.16-5.453 12.16-12.179s-5.44-12.178-12.16-12.178-12.17 5.452-12.17 12.178c0 6.726 5.45 12.179 12.17 12.179zm12.16 36.536c6.72 0 12.17-5.453 12.17-12.179s-5.45-12.178-12.17-12.178-12.16 5.452-12.16 12.178c0 6.726 5.44 12.179 12.16 12.179zm-24.33 24.357c6.72 0 12.17-5.453 12.17-12.179s-5.45-12.178-12.17-12.178c-6.71 0-12.16 5.452-12.16 12.178 0 6.726 5.45 12.179 12.16 12.179zm-24.32 24.357c6.72 0 12.16-5.453 12.16-12.179s-5.44-12.178-12.16-12.178-12.17 5.452-12.17 12.178c0 6.726 5.45 12.179 12.17 12.179zm-24.33 12.178c6.72 0 12.16-5.452 12.16-12.178 0-6.726-5.44-12.179-12.16-12.179s-12.16 5.453-12.16 12.179 5.44 12.178 12.16 12.178zm-24.33 24.358c6.72 0 12.17-5.453 12.17-12.179s-5.45-12.179-12.17-12.179-12.16 5.453-12.16 12.179 5.44 12.179 12.16 12.179zm-24.32 24.357c6.71 0 12.16-5.453 12.16-12.179s-5.45-12.178-12.16-12.178c-6.72 0-12.17 5.452-12.17 12.178 0 6.726 5.45 12.179 12.17 12.179zm-97.31 60.893c6.71 0 12.16-5.453 12.16-12.179s-5.45-12.179-12.16-12.179c-6.72 0-12.17 5.453-12.17 12.179s5.45 12.179 12.17 12.179zm-24.33 24.357c6.72 0 12.16-5.453 12.16-12.179s-5.44-12.178-12.16-12.178-12.16 5.452-12.16 12.178c0 6.726 5.44 12.179 12.16 12.179zm-24.33 12.178c6.72 0 12.17-5.452 12.17-12.178 0-6.726-5.45-12.179-12.17-12.179s-12.16 5.453-12.16 12.179 5.44 12.178 12.16 12.178zm-24.33 12.179c6.72 0 12.17-5.453 12.17-12.179s-5.45-12.178-12.17-12.178c-6.71 0-12.16 5.452-12.16 12.178 0 6.726 5.45 12.179 12.16 12.179zm-24.32 12.178c6.72 0 12.16-5.452 12.16-12.178 0-6.726-5.44-12.179-12.16-12.179s-12.17 5.453-12.17 12.179 5.45 12.178 12.17 12.178zM1495 317.679c6.72 0 12.16-5.453 12.16-12.179s-5.44-12.179-12.16-12.179-12.16 5.453-12.16 12.179 5.44 12.179 12.16 12.179zm-36.49 12.178c6.72 0 12.16-5.452 12.16-12.178 0-6.726-5.44-12.179-12.16-12.179s-12.16 5.453-12.16 12.179 5.44 12.178 12.16 12.178zm-24.33 12.179c6.72 0 12.17-5.453 12.17-12.179s-5.45-12.178-12.17-12.178-12.16 5.452-12.16 12.178c0 6.726 5.44 12.179 12.16 12.179zm-24.33 12.178c6.72 0 12.17-5.452 12.17-12.178 0-6.726-5.45-12.179-12.17-12.179-6.71 0-12.16 5.453-12.16 12.179s5.45 12.178 12.16 12.178zm-24.32 12.179c6.72 0 12.16-5.453 12.16-12.179s-5.44-12.178-12.16-12.178-12.17 5.452-12.17 12.178c0 6.726 5.45 12.179 12.17 12.179zm-36.49 0c6.71 0 12.16-5.453 12.16-12.179s-5.45-12.178-12.16-12.178c-6.72 0-12.17 5.452-12.17 12.178 0 6.726 5.45 12.179 12.17 12.179zm-24.33 12.178c6.72 0 12.16-5.452 12.16-12.178 0-6.726-5.44-12.179-12.16-12.179s-12.16 5.453-12.16 12.179 5.44 12.178 12.16 12.178zm-36.49 12.179c6.72 0 12.16-5.452 12.16-12.178 0-6.727-5.44-12.179-12.16-12.179s-12.17 5.452-12.17 12.179c0 6.726 5.45 12.178 12.17 12.178zm-24.33 12.179c6.72 0 12.16-5.453 12.16-12.179s-5.44-12.179-12.16-12.179-12.16 5.453-12.16 12.179 5.44 12.179 12.16 12.179zm-24.33 0c6.72 0 12.17-5.453 12.17-12.179s-5.45-12.179-12.17-12.179c-6.71 0-12.16 5.453-12.16 12.179s5.45 12.179 12.16 12.179zm-36.49 12.178c6.72 0 12.17-5.452 12.17-12.178 0-6.726-5.45-12.179-12.17-12.179s-12.16 5.453-12.16 12.179 5.44 12.178 12.16 12.178zM1896.4 1.036c6.72 0 12.16-5.453 12.16-12.179s-5.44-12.178-12.16-12.178-12.16 5.452-12.16 12.178c0 6.726 5.44 12.179 12.16 12.179zm-24.33 24.357c6.72 0 12.17-5.453 12.17-12.179s-5.45-12.178-12.17-12.178c-6.71 0-12.16 5.452-12.16 12.178 0 6.726 5.45 12.179 12.16 12.179z"/><path d="M1847.75 49.75c6.71 0 12.16-5.453 12.16-12.178 0-6.727-5.45-12.18-12.16-12.18-6.72 0-12.17 5.454-12.17 12.18 0 6.725 5.45 12.178 12.17 12.178zM1567.98 305.5c6.72 0 12.17-5.452 12.17-12.178 0-6.727-5.45-12.179-12.17-12.179s-12.16 5.452-12.16 12.179c0 6.726 5.44 12.178 12.16 12.178zm-24.33 24.357c6.72 0 12.17-5.452 12.17-12.178 0-6.726-5.45-12.179-12.17-12.179-6.71 0-12.16 5.453-12.16 12.179s5.45 12.178 12.16 12.178zm-24.32 12.179c6.72 0 12.16-5.453 12.16-12.179s-5.44-12.178-12.16-12.178-12.17 5.452-12.17 12.178c0 6.726 5.45 12.179 12.17 12.179zm-36.49 12.178c6.71 0 12.16-5.452 12.16-12.178 0-6.726-5.45-12.179-12.16-12.179-6.72 0-12.17 5.453-12.17 12.179s5.45 12.178 12.17 12.178zm-24.33 12.179c6.72 0 12.16-5.453 12.16-12.179s-5.44-12.178-12.16-12.178-12.16 5.452-12.16 12.178c0 6.726 5.44 12.179 12.16 12.179zm-24.33 12.178c6.72 0 12.17-5.452 12.17-12.178 0-6.726-5.45-12.179-12.17-12.179s-12.16 5.453-12.16 12.179 5.44 12.178 12.16 12.178zm-24.33 12.179c6.72 0 12.17-5.452 12.17-12.178 0-6.727-5.45-12.179-12.17-12.179-6.71 0-12.16 5.452-12.16 12.179 0 6.726 5.45 12.178 12.16 12.178zm-36.49 12.179c6.72 0 12.17-5.453 12.17-12.179s-5.45-12.179-12.17-12.179c-6.71 0-12.16 5.453-12.16 12.179s5.45 12.179 12.16 12.179zm-24.32 12.178c6.71 0 12.16-5.452 12.16-12.178 0-6.726-5.45-12.179-12.16-12.179-6.72 0-12.17 5.453-12.17 12.179s5.45 12.178 12.17 12.178zm-24.33 0c6.72 0 12.16-5.452 12.16-12.178 0-6.726-5.44-12.179-12.16-12.179s-12.16 5.453-12.16 12.179 5.44 12.178 12.16 12.178zm-36.49 12.179c6.72 0 12.16-5.453 12.16-12.179s-5.44-12.178-12.16-12.178-12.17 5.452-12.17 12.178c0 6.726 5.45 12.179 12.17 12.179zm-24.33 12.178c6.72 0 12.16-5.452 12.16-12.178 0-6.726-5.44-12.179-12.16-12.179s-12.16 5.453-12.16 12.179 5.44 12.178 12.16 12.178zm-36.49 0c6.72 0 12.16-5.452 12.16-12.178 0-6.726-5.44-12.179-12.16-12.179s-12.16 5.453-12.16 12.179 5.44 12.178 12.16 12.178zm669-389.714c6.72 0 12.16-5.453 12.16-12.178 0-6.727-5.44-12.18-12.16-12.18s-12.16 5.454-12.16 12.18c0 6.725 5.44 12.178 12.16 12.178zm-279.76 267.929c6.71 0 12.16-5.453 12.16-12.179s-5.45-12.179-12.16-12.179c-6.72 0-12.17 5.453-12.17 12.179s5.45 12.179 12.17 12.179zm-24.33 12.178c6.72 0 12.16-5.452 12.16-12.178 0-6.726-5.44-12.179-12.16-12.179s-12.16 5.453-12.16 12.179 5.44 12.178 12.16 12.178zm-48.66 36.536c6.72 0 12.17-5.453 12.17-12.179s-5.45-12.178-12.17-12.178c-6.71 0-12.16 5.452-12.16 12.178 0 6.726 5.45 12.179 12.16 12.179zm-36.49 12.178c6.72 0 12.17-5.452 12.17-12.178 0-6.726-5.45-12.179-12.17-12.179-6.71 0-12.16 5.453-12.16 12.179s5.45 12.178 12.16 12.178zm-158.12 73.072c6.71 0 12.16-5.453 12.16-12.179s-5.45-12.178-12.16-12.178c-6.72 0-12.17 5.452-12.17 12.178 0 6.726 5.45 12.179 12.17 12.179zm-36.49 0c6.71 0 12.16-5.453 12.16-12.179s-5.45-12.178-12.16-12.178c-6.72 0-12.17 5.452-12.17 12.178 0 6.726 5.45 12.179 12.17 12.179zm-24.33 12.178c6.72 0 12.16-5.452 12.16-12.178 0-6.726-5.44-12.179-12.16-12.179s-12.17 5.453-12.17 12.179 5.45 12.178 12.17 12.178zM1263.89 476c6.72 0 12.16-5.452 12.16-12.179 0-6.726-5.44-12.178-12.16-12.178s-12.16 5.452-12.16 12.178c0 6.727 5.44 12.179 12.16 12.179zm352.75-121.786c6.71 0 12.16-5.452 12.16-12.178 0-6.726-5.45-12.179-12.16-12.179-6.72 0-12.17 5.453-12.17 12.179s5.45 12.178 12.17 12.178zm-24.33 24.357c6.72 0 12.16-5.452 12.16-12.178 0-6.726-5.44-12.179-12.16-12.179s-12.16 5.453-12.16 12.179 5.44 12.178 12.16 12.178zm-24.33 12.179c6.72 0 12.17-5.452 12.17-12.178 0-6.727-5.45-12.179-12.17-12.179s-12.16 5.452-12.16 12.179c0 6.726 5.44 12.178 12.16 12.178zm-36.49 12.179c6.72 0 12.16-5.453 12.16-12.179s-5.44-12.179-12.16-12.179-12.16 5.453-12.16 12.179 5.44 12.179 12.16 12.179zm85.15 0c6.71 0 12.16-5.453 12.16-12.179s-5.45-12.179-12.16-12.179c-6.72 0-12.17 5.453-12.17 12.179s5.45 12.179 12.17 12.179zm-24.33 12.178c6.72 0 12.16-5.452 12.16-12.178 0-6.726-5.44-12.179-12.16-12.179s-12.16 5.453-12.16 12.179 5.44 12.178 12.16 12.178zm-24.33 12.179c6.72 0 12.17-5.453 12.17-12.179s-5.45-12.178-12.17-12.178-12.16 5.452-12.16 12.178c0 6.726 5.44 12.179 12.16 12.179zm-36.49 12.178c6.72 0 12.16-5.452 12.16-12.178 0-6.726-5.44-12.179-12.16-12.179s-12.16 5.453-12.16 12.179 5.44 12.178 12.16 12.178z"/></g><defs><clipPath id="clip0_190_1505"><path fill="#fff" d="M0 0h1920v491H0z"/></clipPath></defs></svg>