<svg width="1920" height="491" viewBox="0 0 1920 491" fill="none" xmlns="http://www.w3.org/2000/svg"><path d="M820.272.498c0 14.617-11.962 26.577-26.582 26.577.166-14.617 11.962-26.577 26.582-26.577zm178.93 62.787c8.308 0 15.118 6.81 15.118 15.115-8.31 0-15.118-6.644-15.118-15.115zM560.1 23.753c-10.799 0-19.771-8.804-19.771-19.767A19.71 19.71 0 01560.1 23.753z" fill="#fff" fill-opacity=".3"/><path d="M539 53.65c0-12.457 10.134-22.589 22.595-22.589-.166 12.458-10.135 22.59-22.595 22.59z" fill="#fff" fill-opacity=".15"/><path d="M786.878 22.258a16.732 16.732 0 01-16.78-16.777c9.304 0 16.78 7.475 16.78 16.777z" fill="#fff" fill-opacity=".3"/><path d="M786.712 34.217c0 8.97-7.31 16.278-16.282 16.278 0-8.97 7.31-16.278 16.282-16.278z" fill="#fff" fill-opacity=".15"/><path d="M842.7 149.325c0 7.807-6.313 14.285-14.287 14.285 0-7.807 6.479-14.285 14.287-14.285z" fill="#fff" fill-opacity=".3"/><path d="M901.513 33.553c0 9.8-7.974 17.606-17.61 17.606 0-9.8 7.808-17.606 17.61-17.606zM762.788 58.136c0 14.118-11.464 25.745-25.751 25.745.166-14.284 11.629-25.745 25.751-25.745z" fill="#fff" fill-opacity=".15"/><path d="M671.578 21.095c-7.974 0-14.62-6.478-14.62-14.617 8.141.166 14.62 6.644 14.62 14.617z" fill="#fff" fill-opacity=".3"/><path d="M956.837 92.353c0 7.806-6.313 14.284-14.288 14.284 0-7.973 6.48-14.284 14.288-14.284zm66.123-66.109c0-13.786 11.13-24.75 24.75-24.75 0 13.621-11.13 24.75-24.75 24.75z" fill="#fff" fill-opacity=".15"/><path d="M1084.1 79.23c0-9.135 7.48-16.61 16.61-16.61 0 9.136-7.47 16.61-16.61 16.61z" fill="#fff" fill-opacity=".3"/><path d="M1111.35 61.125c10.79 0 19.43 8.638 19.43 19.434-10.8 0-19.43-8.637-19.43-19.434zm57.48 114.611c10.3 0 18.61 8.305 18.61 18.603-10.3 0-18.61-8.305-18.61-18.603z" fill="#fff" fill-opacity=".15"/><path d="M1138.59 196c0-12.125 9.8-21.925 21.93-21.925 0 12.125-9.8 21.925-21.93 21.925zM847.685 83.05a24.176 24.176 0 01-24.257-24.25 24.176 24.176 0 0124.257 24.25z" fill="#fff" fill-opacity=".3"/><path d="M1027.78 91.854c8.31 0 15.12 6.81 15.12 15.115-8.31 0-15.12-6.81-15.12-15.115z" fill="#fff" fill-opacity=".15"/><path d="M928.926 177.23c0 8.472-6.978 15.448-15.451 15.448 0-8.471 6.978-15.448 15.451-15.448z" fill="#fff" fill-opacity=".3"/><path d="M873.436 118.597c0 10.298-8.307 18.603-18.608 18.603 0-10.298 8.307-18.603 18.608-18.603z" fill="#fff" fill-opacity=".15"/><path d="M843.365 135.871c-8.639 0-15.617-6.976-15.617-15.613 8.639-.166 15.617 6.81 15.617 15.613zM1164.18 0c15.28 0 27.74 12.458 27.74 27.739-15.28 0-27.74-12.458-27.74-27.739zm-34.06 90.36a18.221 18.221 0 01-18.28 18.271 18.221 18.221 0 0118.28-18.272z" fill="#fff" fill-opacity=".3"/><path d="M586.682 5.98c0 8.637-6.978 15.613-15.617 15.613-.167-8.637 6.811-15.613 15.617-15.613z" fill="#fff" fill-opacity=".05"/><path d="M586.682 50.163c-8.64 0-15.617-6.977-15.617-15.614 8.473 0 15.617 6.976 15.617 15.614z" fill="#fff" fill-opacity=".3"/><path d="M1055.02 4.983c9.81 0 17.62 7.973 17.62 17.607-9.64.166-17.62-7.807-17.62-17.607z" fill="#fff" fill-opacity=".15"/><path d="M1080.94 25.414c0-12.79 10.3-23.089 23.1-23.089 0 12.79-10.47 23.089-23.1 23.089zm-56.65 119.925c12.29 0 22.26 9.966 22.26 22.258-12.29 0-22.26-9.966-22.26-22.258zm171.95-64.115c0-11.295 9.14-20.597 20.6-20.597 0 11.295-9.13 20.597-20.6 20.597z" fill="#fff" fill-opacity=".3"/><path d="M1189.1 31.227c0 12.292-9.97 22.258-22.26 22.258.16-12.292 9.96-22.258 22.26-22.258zm7.14-7.142c0-11.295 9.14-20.597 20.6-20.597 0 11.461-9.13 20.597-20.6 20.597z" fill="#fff" fill-opacity=".15"/><path d="M1198.9 34.715c8.47 0 15.45 6.976 15.45 15.448-8.64-.166-15.45-6.977-15.45-15.448z" fill="#fff" fill-opacity=".05"/><path d="M1193.25 86.04c14.79 0 26.75 11.96 26.75 26.743-14.79 0-26.75-11.959-26.75-26.742zm-3.15 1.33c0 13.288-10.8 23.918-23.93 23.918-.16-13.122 10.63-23.918 23.93-23.918zM872.439 62.62c0 9.136-7.476 16.61-16.614 16.61 0-9.135 7.477-16.61 16.614-16.61z" fill="#fff" fill-opacity=".3"/><path d="M970.294 148.495c8.806 0 15.95 7.142 15.95 15.946-8.806 0-15.95-7.143-15.95-15.946z" fill="#fff" fill-opacity=".05"/><path d="M875.928 1.993c0 13.122-10.633 23.753-23.758 23.753.166-13.122 10.799-23.753 23.758-23.753zM728.73 21.095c-7.975 0-14.62-6.478-14.62-14.617 8.14.166 14.62 6.644 14.62 14.617z" fill="#fff" fill-opacity=".3"/><path d="M731.056 32.888c0 10.63-8.64 19.102-19.106 19.102 0-10.63 8.473-19.102 19.106-19.102z" fill="#fff" fill-opacity=".15"/><path d="M1250.1 23.753c-10.8 0-19.77-8.804-19.77-19.767 10.96 0 19.77 8.804 19.77 19.767z" fill="#fff" fill-opacity=".3"/><path d="M1715.62 137.698c0-10.63 8.64-19.434 19.44-19.434 0 10.631-8.64 19.434-19.44 19.434z" fill="#fff" fill-opacity=".05"/><path d="M1229 53.65c0-12.457 10.13-22.589 22.59-22.589-.16 12.458-10.13 22.59-22.59 22.59z" fill="#fff" fill-opacity=".15"/><path d="M1532.7 149.325c0 7.807-6.31 14.285-14.29 14.285 0-7.807 6.48-14.285 14.29-14.285zm-171.12-128.23c-7.98 0-14.62-6.478-14.62-14.617 8.14.166 14.62 6.644 14.62 14.617z" fill="#fff" fill-opacity=".3"/><path d="M1712.96 26.244c0-13.786 11.13-24.75 24.75-24.75 0 13.621-11.13 24.75-24.75 24.75z" fill="#fff" fill-opacity=".15"/><path d="M1774.1 79.23c0-9.135 7.48-16.61 16.61-16.61 0 9.136-7.47 16.61-16.61 16.61z" fill="#fff" fill-opacity=".3"/><path d="M1801.35 61.125c10.79 0 19.43 8.638 19.43 19.434-10.8 0-19.43-8.637-19.43-19.434z" fill="#fff" fill-opacity=".15"/><path d="M1651.66 30.563c0 13.122-10.64 23.752-23.76 23.752 0-13.122 10.63-23.752 23.76-23.752z" fill="#fff" fill-opacity=".05"/><path d="M1603.14 34.217c8.97 0 16.28 7.308 16.28 16.278-9.13 0-16.28-7.309-16.28-16.278zm255.69 141.519c10.3 0 18.61 8.305 18.61 18.603-10.3 0-18.61-8.305-18.61-18.603z" fill="#fff" fill-opacity=".15"/><path d="M1828.59 196c0-12.125 9.8-21.925 21.93-21.925 0 12.125-9.8 21.925-21.93 21.925z" fill="#fff" fill-opacity=".3"/><path d="M1717.78 91.854c8.31 0 15.12 6.81 15.12 15.115-8.31 0-15.12-6.81-15.12-15.115zm-154.34 26.743c0 10.298-8.31 18.603-18.61 18.603 0-10.298 8.31-18.603 18.61-18.603z" fill="#fff" fill-opacity=".15"/><path d="M1854.18 0c15.28 0 27.74 12.458 27.74 27.739-15.28 0-27.74-12.458-27.74-27.739zm-34.06 90.36a18.221 18.221 0 01-18.28 18.271 18.221 18.221 0 0118.28-18.272z" fill="#fff" fill-opacity=".3"/><path d="M1276.68 5.98c0 8.637-6.98 15.613-15.62 15.613-.16-8.637 6.82-15.613 15.62-15.613z" fill="#fff" fill-opacity=".05"/><path d="M1276.68 50.163c-8.64 0-15.62-6.977-15.62-15.614 8.48 0 15.62 6.976 15.62 15.614z" fill="#fff" fill-opacity=".3"/><path d="M1745.02 4.983c9.81 0 17.62 7.973 17.62 17.607-9.64.166-17.62-7.807-17.62-17.607z" fill="#fff" fill-opacity=".15"/><path d="M1770.94 25.414c0-12.79 10.3-23.089 23.1-23.089 0 12.79-10.47 23.089-23.1 23.089zm115.3 55.81c0-11.295 9.14-20.597 20.6-20.597 0 11.295-9.13 20.597-20.6 20.597z" fill="#fff" fill-opacity=".3"/><path d="M1879.1 31.227c0 12.292-9.97 22.258-22.26 22.258.16-12.292 9.96-22.258 22.26-22.258zm7.14-7.142c0-11.295 9.14-20.597 20.6-20.597 0 11.461-9.13 20.597-20.6 20.597z" fill="#fff" fill-opacity=".15"/><path d="M1883.25 86.04c14.79 0 26.75 11.96 26.75 26.743-14.79 0-26.75-11.959-26.75-26.742z" fill="#fff" fill-opacity=".3"/><path d="M1660.29 148.495c8.81 0 15.95 7.142 15.95 15.946-8.8 0-15.95-7.143-15.95-15.946z" fill="#fff" fill-opacity=".05"/><path d="M1565.93 1.993c0 13.122-10.63 23.753-23.76 23.753.17-13.122 10.8-23.753 23.76-23.753zm-147.2 19.102c-7.97 0-14.62-6.478-14.62-14.617 8.14.166 14.62 6.644 14.62 14.617z" fill="#fff" fill-opacity=".3"/></svg>